<svg width="180" height="80" viewBox="0 0 180 80" fill="none" xmlns="http://www.w3.org/2000/svg"> <path fill-rule="evenodd" clip-rule="evenodd" d="M34.9261 19C18.1852 19 14 23.2 14 40C14 56.8 18.1852 61 34.9261 61C51.6669 61 55.8521 56.8 55.8521 40C55.8521 23.2 51.6669 19 34.9261 19Z" fill="white" fill-opacity="0.1" style="fill: var(--token-703c781d-88fc-4db0-b0bc-b65130886925, rgb(255, 255, 255));"/> <path d="M24.1406 32.4531C24.1406 28.6475 27.2148 25.5625 31.007 25.5625C34.7992 25.5625 37.8734 28.6475 37.8734 32.4531V53.125H33.2958C28.2395 53.125 24.1406 49.0116 24.1406 43.9375V32.4531Z" fill="white" fill-opacity="0.64" style="fill: var(--token-703c781d-88fc-4db0-b0bc-b65130886925, rgb(255, 255, 255));"/> <path d="M47.029 43.9375C47.029 49.0116 42.9302 53.125 37.8739 53.125C32.8176 53.125 28.7188 49.0116 28.7188 43.9375C28.7188 38.8634 32.8176 34.75 37.8739 34.75C42.9302 34.75 47.029 38.8634 47.029 43.9375Z" fill="white" style="fill: var(--token-703c781d-88fc-4db0-b0bc-b65130886925, rgb(255, 255, 255));"/> <path fill-rule="evenodd" clip-rule="evenodd" d="M137.074 48.7173C137.074 48.1432 136.862 47.7805 136.528 47.3877L132.034 42.1604L136.315 38.8366C136.77 38.4741 136.953 38.0511 136.953 37.5374C136.953 36.6008 136.345 35.9662 135.404 35.9662C134.888 35.9662 134.524 36.1475 134.098 36.5101L127.236 42.2209V31.2223C127.236 30.1345 126.659 29.5 125.627 29.5C124.625 29.5 124.017 30.1345 124.017 31.2223V48.5964C124.017 49.6841 124.625 50.3187 125.627 50.3187C126.659 50.3187 127.236 49.6841 127.236 48.5964V45.8467L129.513 44.0942L134.098 49.6237C134.432 50.0467 134.918 50.3187 135.465 50.3187C136.436 50.3187 137.074 49.6841 137.074 48.7173ZM89.0066 44.7288C89.0066 42.4626 87.9439 40.9517 85.9095 40.2266V40.1662C87.5795 39.3805 88.4298 37.9302 88.4298 35.9058C88.4298 32.2496 86.3346 30.5575 81.9316 30.5575H73.4296C72.2453 30.5575 71.5469 31.2525 71.5469 32.4309V48.264C71.5469 49.4425 72.2453 50.1374 73.4296 50.1374H82.5085C86.9419 50.1374 89.0066 48.4151 89.0066 44.7288ZM84.8771 36.238C84.8771 37.9302 83.8447 38.7159 81.7799 38.7159H75.0387V33.7302H81.7799C83.8447 33.7302 84.8771 34.546 84.8771 36.238ZM85.3932 44.3662C85.3932 46.0885 84.3608 46.9346 82.296 46.9346H75.0387V41.8583H82.296C84.3304 41.8583 85.3932 42.6439 85.3932 44.3662ZM105.98 48.5964V37.6885C105.98 36.631 105.373 35.9662 104.341 35.9662C103.369 35.9662 102.762 36.631 102.762 37.6885V37.8396H102.701C101.638 36.5101 99.9682 35.7849 97.8428 35.7849C93.7131 35.7849 90.9803 38.7159 90.9803 43.1575C90.9803 47.569 93.7131 50.5 97.8428 50.5C99.9378 50.5 101.608 49.7447 102.701 48.4453H102.762V48.5964C102.762 49.6841 103.369 50.3187 104.341 50.3187C105.373 50.3187 105.98 49.6841 105.98 48.5964ZM98.4803 38.7159C101.001 38.7159 102.762 40.5288 102.762 43.1274C102.762 45.6956 101.001 47.5086 98.4803 47.5086C95.9905 47.5086 94.2597 45.7259 94.2597 43.1274C94.2597 40.4986 95.9905 38.7159 98.4803 38.7159ZM115.272 41.5561C119.827 41.5561 121.527 42.9159 121.527 45.9374C121.527 48.7777 119.22 50.4698 115.363 50.4698C112.357 50.4698 110.535 49.9863 109.078 48.7475C108.744 48.4453 108.592 48.0525 108.592 47.6296C108.592 46.6928 109.199 46.0885 110.05 46.0885C110.353 46.0885 110.657 46.1791 110.991 46.4209C112.145 47.267 113.42 47.6598 115.09 47.6598C117.094 47.6598 118.278 47.0252 118.278 45.9374C118.278 45.0008 117.458 44.5777 114.847 44.5777C110.414 44.5777 108.714 43.2785 108.714 40.3777C108.714 37.5676 111.082 35.8151 114.908 35.8151C117.307 35.8151 118.855 36.2382 120.252 37.2352C120.708 37.5676 120.89 37.9907 120.89 38.4741C120.89 39.4109 120.282 40.0151 119.432 40.0151C118.977 40.0151 118.612 39.8036 118.278 39.5921C117.458 38.9877 116.335 38.6555 115.12 38.6555C113.207 38.6555 111.993 39.3201 111.993 40.408C111.993 41.2237 112.752 41.5561 115.272 41.5561ZM146.123 50.4698C141.477 50.4698 138.441 47.4785 138.441 43.1274C138.441 38.7461 141.507 35.7547 145.971 35.7547C150.04 35.7547 153.168 38.6857 153.168 42.2511V42.4022C153.168 43.5503 152.408 44.2756 151.255 44.2756H141.841C142.236 46.3302 143.876 47.5994 146.123 47.5994C147.641 47.5994 148.825 46.995 149.524 46.1791C149.888 45.7561 150.253 45.605 150.738 45.605C151.68 45.605 152.257 46.1791 152.257 47.0857C152.257 47.4483 152.135 47.7503 151.892 48.0525C150.617 49.5936 148.613 50.4698 146.123 50.4698ZM141.841 41.7072H150.04C149.585 39.8338 148.036 38.6252 146.001 38.6252C143.967 38.6252 142.297 39.8338 141.841 41.7072ZM160.759 50.4698C163.036 50.4698 164.706 49.6237 165.526 48.0223C165.648 47.7805 165.739 47.4785 165.708 47.1461C165.708 46.1791 165.071 45.6654 164.22 45.6654C163.643 45.6654 163.249 45.9374 162.975 46.3604C162.52 47.0855 161.822 47.5086 160.88 47.5086C159.453 47.5086 158.572 46.572 158.572 44.9101V39.0483H163.431C164.433 39.0483 165.04 38.5042 165.04 37.5978C165.04 36.6612 164.433 36.1173 163.431 36.1173H158.572V33.0353C158.572 31.9475 157.965 31.3129 156.963 31.3129C155.961 31.3129 155.354 31.9475 155.354 33.0353V44.8193C155.354 48.3547 157.388 50.4698 160.759 50.4698Z" fill="white" style="fill: var(--token-703c781d-88fc-4db0-b0bc-b65130886925, rgb(255, 255, 255));"/> </svg>