<svg width="192" height="80" viewBox="0 0 192 80" fill="none" xmlns="http://www.w3.org/2000/svg"> <path d="M57.6654 57.2402C54.5365 57.2402 52 55.2116 52 52.7092C52 50.2068 54.5365 48.1782 57.6654 48.1782C60.7943 48.1782 63.3307 50.2068 63.3307 52.7092C63.3307 55.2116 60.7943 57.2402 57.6654 57.2402Z" fill="white" style="fill: var(--token-703c781d-88fc-4db0-b0bc-b65130886925, rgb(255, 255, 255));"/> <path d="M71.8303 22.3993H66.3226C66.9986 22.8482 67.0486 24.1949 67.0486 25.4917V36.5643C67.0486 37.861 66.9986 39.1828 66.3226 39.6067H72.0807C71.4047 39.2576 71.3797 37.861 71.3797 36.5643V34.22H71.8303C77.4882 34.22 79.8164 31.6764 79.8164 28.3097C79.8164 24.9679 77.4882 22.3993 71.8303 22.3993ZM72.2059 33.6964H71.3797V22.8981H72.2059C74.434 22.9729 75.2351 24.6438 75.2351 28.3097C75.2351 31.9756 74.434 33.6465 72.2059 33.6964Z" fill="white" style="fill: var(--token-703c781d-88fc-4db0-b0bc-b65130886925, rgb(255, 255, 255));"/> <path d="M86.9511 39.7813C90.0303 39.7813 91.7828 38.1105 92.3836 37.0631C89.3544 38.31 86.25 36.0157 84.4725 33.3971H93.3349C93.3349 30.604 91.5324 27.0877 86.9511 27.0877C83.1457 27.0877 80.5922 29.6314 80.5922 33.4221C80.5922 37.2127 83.1457 39.7813 86.9511 39.7813ZM84.6979 27.9855C86.3251 27.9855 88.5032 29.9806 89.054 32.7487H84.1221C83.4962 31.6764 83.1207 30.5542 83.1207 29.7063C83.1207 28.5092 83.8717 27.9855 84.6979 27.9855Z" fill="white" style="fill: var(--token-703c781d-88fc-4db0-b0bc-b65130886925, rgb(255, 255, 255));"/> <path d="M99.6533 36.5643V22.125C99.0525 22.6238 96.2736 24.0203 94.7465 24.1699C95.4725 24.544 95.4725 25.9156 95.4725 27.2373V36.5643C95.4725 37.8611 95.4224 39.1828 94.7465 39.6068H100.354C99.6783 39.2576 99.6533 37.8611 99.6533 36.5643Z" fill="white" style="fill: var(--token-703c781d-88fc-4db0-b0bc-b65130886925, rgb(255, 255, 255));"/> <path d="M108.49 27.0877C104.835 27.0877 102.107 29.5068 102.107 33.4221C102.107 37.3623 104.835 39.7813 108.49 39.7813C112.171 39.7813 114.899 37.3623 114.899 33.4221C114.899 29.5068 112.171 27.0877 108.49 27.0877ZM108.49 39.4322C107.038 39.4322 106.588 37.2875 106.588 33.4221C106.588 29.5816 107.038 27.4618 108.49 27.4618C109.942 27.4618 110.418 29.5816 110.418 33.4221C110.418 37.2875 109.942 39.4322 108.49 39.4322Z" fill="white" style="fill: var(--token-703c781d-88fc-4db0-b0bc-b65130886925, rgb(255, 255, 255));"/> <path d="M74.2086 48.7863L76.5119 45.1204C76.3366 45.2451 76.1363 45.2949 75.886 45.2949C74.8345 45.2949 73.007 44.5468 70.7538 44.5468C67.9499 44.5468 65.7969 45.7687 65.7969 48.3623C65.7969 49.6841 66.6732 50.7564 67.975 51.4298C70.879 52.9759 75.3352 53.4248 75.3352 55.1955C75.3352 55.7191 74.8595 56.193 73.783 56.193C71.9054 56.193 67.9249 54.572 66.5981 52.1031C65.9721 52.6019 65.5966 53.3251 65.5966 54.0483C65.5966 55.6194 67.1738 57.2404 71.2545 57.2404C75.4604 57.2404 76.8122 55.2204 76.8122 53.0757C76.8122 47.9384 67.4743 48.512 67.4743 46.2426C67.4743 45.7687 68.1252 45.2949 69.2267 45.2949C71.7052 45.2949 73.4576 46.8162 74.2086 48.7863Z" fill="white" style="fill: var(--token-703c781d-88fc-4db0-b0bc-b65130886925, rgb(255, 255, 255));"/> <path d="M82.5983 57.2404C83.6247 57.2404 84.2756 56.9162 84.6011 56.5421H84.551C83.6998 56.5421 83.124 55.8937 83.124 53.6493V45.3448H85.0768V44.6965H83.124V41.6789C82.5482 42.3024 80.0697 44.6965 77.5913 45.3448H78.9182V53.5246C78.9182 56.3925 80.7457 57.2404 82.5983 57.2404Z" fill="white" style="fill: var(--token-703c781d-88fc-4db0-b0bc-b65130886925, rgb(255, 255, 255));"/> <path d="M98.9301 54.0233V44.2475C98.3543 44.7213 95.5754 46.1179 94.0232 46.2675C94.7743 46.6416 94.7743 48.0132 94.7743 49.31L94.7492 51.1305C94.7492 54.1729 93.7729 56.0434 92.5712 56.0434C91.3695 56.0434 90.9689 54.2727 90.9689 52.8762V44.2475C90.3931 44.7213 87.6143 46.1179 86.0621 46.2675C86.763 46.6416 86.7631 48.2127 86.7631 49.5095V52.1529C86.7631 56.1182 88.9411 57.2404 90.8187 57.2404C92.6713 57.2404 94.1734 56.3177 94.7743 54.572V57.0658H99.6561C98.9801 56.7665 98.9301 55.3201 98.9301 54.0233Z" fill="white" style="fill: var(--token-703c781d-88fc-4db0-b0bc-b65130886925, rgb(255, 255, 255));"/> <path d="M109.558 57.0658H114.49C113.764 56.7167 113.739 55.2703 113.739 53.9984L114.177 38.9747C113.499 39.988 112.473 40.5323 111.769 40.8154C110.92 41.1575 110.587 41.2353 109.558 41.3818C109.558 41.7505 109.558 43.3747 109.558 44.6715V47.4646C108.882 45.6441 107.655 44.5468 106.028 44.5468C103.524 44.5468 101.496 46.3174 101.496 50.8811C101.496 55.4448 103.524 57.2404 106.028 57.2404C107.655 57.2404 108.882 56.1431 109.558 54.2977V57.0658ZM105.778 50.8811C105.778 47.3399 106.579 45.8436 107.43 45.8436C108.431 45.8436 109.483 47.8387 109.483 50.8811C109.483 53.9485 108.431 55.9186 107.43 55.9186C106.604 55.9186 105.778 54.4473 105.778 50.8811Z" fill="white" style="fill: var(--token-703c781d-88fc-4db0-b0bc-b65130886925, rgb(255, 255, 255));"/> <path d="M118.992 43.5493C120.419 43.5493 121.346 42.826 121.346 41.5791C121.346 40.3572 120.419 39.5841 118.992 39.5841C117.565 39.5841 116.639 40.3572 116.639 41.5791C116.639 42.826 117.565 43.5493 118.992 43.5493ZM116.889 49.31V54.0234C116.889 55.3201 116.864 56.6418 116.188 57.0658H121.796C121.12 56.7167 121.095 55.3201 121.095 54.0234V44.2475C120.494 44.7213 117.715 46.1179 116.188 46.2675C116.889 46.6416 116.889 48.0132 116.889 49.31Z" fill="white" style="fill: var(--token-703c781d-88fc-4db0-b0bc-b65130886925, rgb(255, 255, 255));"/> <path d="M130.005 44.5468C126.35 44.5468 123.621 46.9658 123.621 50.8811C123.621 54.8214 126.35 57.2404 130.005 57.2404C133.685 57.2404 136.414 54.8214 136.414 50.8811C136.414 46.9658 133.685 44.5468 130.005 44.5468ZM130.005 56.8913C128.553 56.8913 128.102 54.7465 128.102 50.8811C128.102 47.0406 128.553 44.9208 130.005 44.9208C131.457 44.9208 131.933 47.0406 131.933 50.8811C131.933 54.7465 131.457 56.8913 130.005 56.8913Z" fill="white" style="fill: var(--token-703c781d-88fc-4db0-b0bc-b65130886925, rgb(255, 255, 255));"/> </svg>