<svg width="192" height="80" viewBox="0 0 192 80" fill="none" xmlns="http://www.w3.org/2000/svg"> <path fill-rule="evenodd" clip-rule="evenodd" d="M124.92 35.7527H120.436L116.276 40.4513V30H113.026V48.6873H116.276V44.9713L117.904 43.2384L121.058 48.6873H125.2L120.199 40.7997L124.92 35.7527ZM57.6672 38.9417H58.9196V31.1791H57.6672V38.9417ZM53.7086 41.7376C54.2253 41.1302 54.9785 40.7551 55.8806 40.7551C57.746 40.7551 58.8058 42.1129 58.8145 44.0334V48.7052H57.5709V43.9887C57.5709 42.7828 56.9316 41.9252 55.7054 41.9252C54.5494 41.9252 53.7086 42.8007 53.7086 43.9619V48.7142H52.4562V37.4946H53.7086V41.7376ZM62.3528 34.1895C62.3528 33.0282 63.1935 32.1528 64.3495 32.1528C65.5581 32.1528 66.215 33.0282 66.215 34.2163V38.9327H67.4586V34.2699C67.4586 32.3404 66.3989 30.9826 64.5335 30.9826C63.6139 30.9826 62.8345 31.3756 62.3177 32.0188V31.1702H61.1003V38.9327H62.3528V34.1895ZM49.2771 42.1664V45.8735C49.2771 47.2492 50.1003 47.5976 51.0374 47.535V48.7142C49.2596 48.9285 48.0334 47.8566 48.0334 45.8825V42.1753H47V40.9516H48.0334V39.2901H49.2771V40.9427H51.0024V42.1664H49.2771ZM64.2007 40.7551C62.09 40.7551 60.3735 42.5952 60.3735 44.8373C60.3735 47.1152 62.09 48.8928 64.2795 48.8928C66.0398 48.8928 67.3361 47.9549 67.8702 46.3023H66.539C66.1274 47.2045 65.3567 47.7316 64.2795 47.7316C63.0271 47.7316 61.8097 46.7847 61.6521 45.1678H68.0542C68.063 42.4076 66.1712 40.7551 64.2007 40.7551ZM64.2094 41.9163C63.1584 41.9163 62.0462 42.7024 61.7222 44.0245H66.6617C66.3552 42.7649 65.3217 41.9163 64.2094 41.9163ZM91.1665 35.4222C87.6458 35.4222 84.7907 38.3611 84.7907 42.229C84.7907 46.0969 87.6458 48.9911 91.1665 48.9911C94.6872 48.9911 97.5686 46.1058 97.5686 42.229C97.5686 38.3521 94.696 35.4222 91.1665 35.4222ZM88.0399 42.2647C88.0399 44.4443 89.4411 45.9539 91.1665 45.9539C92.8918 45.9539 94.3018 44.4443 94.2931 42.2647C94.2931 40.0226 92.8918 38.4683 91.1665 38.4683C89.4411 38.4683 88.0399 40.0315 88.0399 42.2647ZM105.223 45.9807C103.428 45.9807 101.974 44.3014 101.974 42.2647C101.974 40.1834 103.428 38.4683 105.223 38.4683C106.405 38.4683 107.413 39.2186 107.859 40.1029H111.336C110.6 37.1909 108.28 35.4311 105.232 35.4311C101.413 35.4311 98.6808 38.495 98.6808 42.2379C98.6808 45.9807 101.413 49 105.232 49C108.315 49 110.627 47.2671 111.362 44.3282H107.885C107.465 45.2215 106.423 45.9807 105.223 45.9807ZM143.075 38.6916V43.2652C143.075 45.0696 143.889 45.7485 145.519 45.6502V48.6605C141.797 49.0626 139.826 46.7847 139.826 43.2384V38.6916H138.302V35.7527H139.826V32.4654H143.075V35.7527H145.369V38.6916H143.075ZM78.5463 31.2595H71.356V48.6963H74.6052V42.4701H78.6163C81.9881 42.4701 84.1864 40.1297 84.1864 36.8961C84.1864 33.4659 82.1195 31.2595 78.5463 31.2595ZM74.6139 39.4241H78.5287C80.0264 39.4241 80.946 38.6469 80.946 36.8872C80.946 35.1274 80.0351 34.3503 78.5287 34.3503H74.6139V39.4241ZM131.427 35.4222C127.853 35.4222 124.929 38.4861 124.929 42.229C124.929 45.9718 127.863 48.9911 131.427 48.9911C134.58 48.9911 136.822 47.2045 137.558 44.5693H134.081C133.537 45.5966 132.478 46.079 131.392 46.079C129.868 46.079 128.633 45.0963 128.213 43.5153H137.794C138.276 38.3879 135.166 35.4222 131.427 35.4222ZM131.401 38.3342C129.92 38.3342 128.738 39.2901 128.274 40.7997H134.58C134.185 39.2901 132.951 38.3342 131.401 38.3342Z" fill="white" style="fill: var(--token-703c781d-88fc-4db0-b0bc-b65130886925, rgb(255, 255, 255));"/> </svg>