<svg width="192" height="80" viewBox="0 0 192 80" fill="none" xmlns="http://www.w3.org/2000/svg"> <path d="M106.928 45.521C106.424 46.245 105.701 46.7884 104.866 47.0719C104.03 47.3553 103.126 47.3638 102.285 47.0962C101.444 46.8285 100.711 46.2987 100.193 45.5845C99.6755 44.8702 99.4 44.0089 99.4072 43.1267C99.4145 42.2446 99.704 41.3879 100.233 40.6822C100.763 39.9765 101.505 39.4588 102.35 39.205C103.195 38.9512 104.099 38.9745 104.93 39.2716C105.76 39.5687 106.474 40.124 106.967 40.8561L110.019 39.054C109.13 37.6519 107.811 36.5759 106.258 35.9877C104.705 35.3996 103.003 35.3309 101.408 35.792C99.8133 36.2532 98.4109 37.2192 97.4118 38.5452C96.4127 39.8711 95.8709 41.4853 95.8676 43.1453C95.8643 44.8054 96.3998 46.4217 97.3937 47.7516C98.3875 49.0815 99.7861 50.0531 101.379 50.5205C102.973 50.9879 104.674 50.926 106.23 50.3439C107.785 49.7618 109.109 48.6911 110.003 47.2925L106.928 45.521ZM115.34 29H111.798V50.2405H115.338V43.1603C115.338 42.0649 115.773 41.0144 116.548 40.2398C117.323 39.4652 118.373 39.0301 119.469 39.0301C120.565 39.0301 121.615 39.4652 122.39 40.2398C123.165 41.0144 123.6 42.0649 123.6 43.1603V50.2405H127.141V42.4716C127.14 41.1052 126.739 39.7689 125.986 38.6284C125.233 37.4878 124.162 36.5932 122.906 36.0553C121.65 35.5175 120.263 35.36 118.918 35.6025C117.573 35.8449 116.328 36.4766 115.339 37.4193L115.34 29ZM90.5549 29H87.014V45.5201C87.0139 46.5396 87.3073 47.5377 87.8593 48.3949C88.4113 49.2522 89.1985 49.9324 90.1269 50.3544C91.0552 50.7764 92.0854 50.9222 93.0944 50.7744C94.1034 50.6267 95.0485 50.1916 95.8169 49.5212L94.1062 46.6191C93.9406 46.8284 93.7298 46.9974 93.4896 47.1135C93.2493 47.2297 92.9858 47.2899 92.719 47.2896H92.3248C91.8555 47.2894 91.4054 47.1029 91.0735 46.7711C90.7417 46.4393 90.5551 45.9893 90.5549 45.5201V39.6203H94.0947V36.0802H90.5549V29ZM82.8858 29C82.3641 29 81.8637 29.2072 81.4949 29.576C81.126 29.9448 80.9187 30.445 80.9187 30.9666C80.9187 31.4882 81.126 31.9884 81.4949 32.3572C81.8637 32.726 82.3641 32.9332 82.8858 32.9332C83.4074 32.9332 83.9078 32.726 84.2766 32.3572C84.6455 31.9884 84.8528 31.4882 84.8528 30.9666C84.8528 30.445 84.6455 29.9448 84.2766 29.576C83.9078 29.2072 83.4074 29 82.8858 29ZM84.6557 50.2405V36.0802H81.1158V50.2405H84.6557Z" fill="white" style="fill: var(--token-703c781d-88fc-4db0-b0bc-b65130886925, rgb(255, 255, 255));"/> <path fill-rule="evenodd" clip-rule="evenodd" d="M64 50.2405H67.5399V46.1103H70.7861C71.9098 46.1103 73.0225 45.889 74.0607 45.459C75.0988 45.0291 76.0421 44.3989 76.8367 43.6045C77.6313 42.8101 78.2616 41.867 78.6916 40.829C79.1217 39.7911 79.343 38.6786 79.343 37.5551C79.343 36.4317 79.1217 35.3192 78.6916 34.2812C78.2616 33.2433 77.6313 32.3002 76.8367 31.5057C76.0421 30.7113 75.0988 30.0812 74.0607 29.6512C73.0225 29.2213 71.9098 29 70.7861 29H64V50.2405ZM67.5399 32.5391H70.7861C72.1164 32.5391 73.3923 33.0675 74.333 34.008C75.2737 34.9485 75.8022 36.2241 75.8022 37.5542C75.8022 38.8842 75.2737 40.1598 74.333 41.1003C73.3923 42.0408 72.1164 42.5692 70.7861 42.5692H67.5408L67.5399 32.5391Z" fill="white" style="fill: var(--token-703c781d-88fc-4db0-b0bc-b65130886925, rgb(255, 255, 255));"/> </svg>