<svg width="192" height="80" viewBox="0 0 192 80" fill="none" xmlns="http://www.w3.org/2000/svg"> <path d="M137.264 37.871L137.798 35.124H133.472L134.272 31.0035H131.388L130.587 35.124H126.261L127.061 31.0035H124.177L123.376 35.124H119.049L118.515 37.871H122.842L122.042 41.992H117.715L117.182 44.739H121.509L120.707 48.8599H123.592L124.393 44.739H128.72L127.919 48.8599H130.804L131.605 44.739H135.931L136.466 41.992H132.139L132.94 37.871H137.264ZM129.252 41.992H124.925L125.726 37.871H130.052L129.252 41.992ZM63.4766 48.8507L59.9916 41.7296H57.485V48.8507H54V31H60.9945C64.6297 31 66.7879 33.4816 66.7879 36.4652C66.7879 38.9726 65.2604 40.5264 63.5285 41.1535L67.5129 48.8507H63.4766ZM60.7706 34.1093H57.485V38.8229H60.7693C62.2969 38.8229 63.3007 37.8448 63.3007 36.4661C63.3007 35.0873 62.2982 34.1084 60.7693 34.1084L60.7706 34.1093ZM77.3701 48.8507V47.6466C76.5177 48.5491 75.3144 48.9996 74.1107 48.9996C72.8074 48.9996 71.7538 48.5736 71.0272 47.8469C69.9744 46.7933 69.6986 45.5656 69.6986 44.1371V35.7883H72.958V43.6849C72.958 45.4656 74.0862 46.0671 75.1136 46.0671C76.141 46.0671 77.2959 45.4656 77.2959 43.6849V35.7883H80.5553V48.8507H77.3701ZM88.3009 48.8507C85.6434 48.8507 84.5156 46.9705 84.5156 45.1156V38.2512H83.1364V35.7691H84.5156V32.3037H87.7745V35.7691H90.0807V38.2512H87.7745V44.9135C87.7745 45.6664 88.1237 46.0919 88.9023 46.0919H90.0807V48.8507H88.3009ZM95.5167 43.3345C95.5167 45.0139 96.5445 46.2421 98.3746 46.2421C99.8039 46.2421 100.506 45.841 101.333 45.0139L103.314 46.9443C101.984 48.2733 100.706 49 98.3493 49C95.2662 49 92.3079 47.5964 92.3079 42.3066C92.3079 38.0447 94.6141 35.6381 97.9988 35.6381C101.634 35.6381 103.69 38.2952 103.69 41.8793V43.3336L95.5167 43.3345ZM100.18 39.6993C99.8306 38.922 99.1017 38.3463 97.9975 38.3463C96.8933 38.3463 96.167 38.9228 95.8152 39.6993C95.6145 40.1755 95.539 40.5285 95.5141 41.1029H100.482C100.456 40.5264 100.38 40.1755 100.18 39.6993ZM115.122 36.0842C114.523 35.766 113.869 35.6381 113.068 35.6381C111.664 35.6381 110.41 36.2898 109.783 37.0418V35.7883H106.599V48.8507H109.858V40.9776C109.858 39.3231 110.965 38.6671 111.965 38.5711C113.154 38.4567 113.803 39.0612 113.803 39.0612L115.122 36.0842Z" fill="white" style="fill: var(--token-703c781d-88fc-4db0-b0bc-b65130886925, rgb(255, 255, 255));"/> </svg>