<svg width="192" height="80" viewBox="0 0 192 80" fill="none" xmlns="http://www.w3.org/2000/svg"> <path d="M70.114 46.6398C70.9999 46.6398 71.7547 46.4417 72.3784 46.0455C72.9891 45.6654 73.4755 45.1153 73.7779 44.4626C74.0829 43.7926 74.2408 43.0649 74.2408 42.3286C74.2408 41.5924 74.0829 40.8647 73.7779 40.1946C73.4745 39.5431 72.9883 38.9938 72.3784 38.6137C71.7547 38.2214 70.9999 38.0253 70.114 38.0253H68.5802C68.523 38.0256 68.4683 38.0484 68.4279 38.0888C68.3875 38.1292 68.3647 38.1839 68.3644 38.241V46.424C68.3644 46.4813 68.3871 46.5361 68.4276 46.5766C68.4681 46.6171 68.5229 46.6398 68.5802 46.6398H70.114ZM65.1006 35.501C65.1006 35.4725 65.1063 35.4444 65.1172 35.4182C65.1281 35.3919 65.1441 35.3681 65.1642 35.3481C65.1843 35.328 65.2082 35.3121 65.2345 35.3014C65.2608 35.2906 65.289 35.2851 65.3174 35.2852H70.417C71.8789 35.2852 73.1538 35.6039 74.2418 36.2414C75.2959 36.8444 76.1607 37.7299 76.7386 38.7981C77.3075 39.8908 77.6045 41.1045 77.6045 42.3365C77.6045 43.5684 77.3075 44.7821 76.7386 45.8748C76.1644 46.9459 75.2987 47.8327 74.2418 48.4325C73.1551 49.0628 71.8802 49.3779 70.417 49.3779H65.3174C65.289 49.378 65.2608 49.3726 65.2345 49.3618C65.2082 49.351 65.1843 49.3351 65.1642 49.3151C65.1441 49.295 65.1281 49.2712 65.1172 49.245C65.1063 49.2187 65.1006 49.1906 65.1006 49.1622V35.501Z" fill="white" style="fill: var(--token-703c781d-88fc-4db0-b0bc-b65130886925, rgb(255, 255, 255));"/> <path d="M91.4189 48.462C90.4866 47.6258 89.9962 46.4692 89.9478 44.9923C89.9468 44.9632 89.9516 44.9341 89.962 44.9069C89.9724 44.8797 89.9882 44.8549 90.0085 44.8339C90.0287 44.813 90.0529 44.7963 90.0798 44.7849C90.1066 44.7735 90.1354 44.7677 90.1646 44.7677H92.9998C93.055 44.7676 93.1082 44.7887 93.1483 44.8267C93.1885 44.8646 93.2125 44.9165 93.2155 44.9717C93.2489 45.6392 93.4519 46.1685 93.8246 46.5594C94.2338 46.989 94.7942 47.2038 95.5055 47.2038C96.109 47.2038 96.5754 47.0694 96.905 46.8007C97.2345 46.532 97.3979 46.1495 97.3953 45.6533C97.3953 45.2237 97.2714 44.8782 97.0236 44.6167C96.7758 44.3551 96.3296 44.0969 95.685 43.8419L93.1479 42.8553C92.2084 42.5062 91.497 42.0064 91.0139 41.3558C90.5307 40.7053 90.2891 39.9233 90.2891 39.01C90.2738 38.2435 90.4875 37.4899 90.903 36.8456C91.3344 36.2032 91.9428 35.6997 92.6546 35.3961C93.413 35.0535 94.2956 34.8822 95.3025 34.8822C96.3237 34.8822 97.2234 35.0669 98.0014 35.4363C98.7415 35.7732 99.3699 36.3146 99.8128 36.9966C100.213 37.6357 100.434 38.3708 100.452 39.1247C100.454 39.154 100.449 39.1833 100.439 39.2107C100.429 39.2382 100.413 39.2634 100.393 39.2846C100.373 39.3059 100.349 39.3229 100.322 39.3345C100.295 39.3461 100.266 39.3521 100.236 39.3522H97.4071C97.3519 39.3521 97.2989 39.3309 97.2588 39.293C97.2187 39.2551 97.1946 39.2033 97.1913 39.1483C97.16 38.5893 96.9942 38.1538 96.6941 37.842C96.3587 37.4928 95.8756 37.3186 95.2446 37.3192C94.7209 37.3192 94.309 37.4428 94.006 37.6909C93.857 37.8138 93.7386 37.9697 93.6601 38.1462C93.5817 38.3227 93.5453 38.515 93.5539 38.7079C93.5518 38.896 93.5903 39.0823 93.6666 39.2543C93.7429 39.4262 93.8553 39.5797 93.9962 39.7043C94.291 39.9802 94.7876 40.2587 95.4859 40.5399L97.8219 41.4657C98.7876 41.8423 99.5022 42.3591 99.9658 43.0162C100.429 43.6732 100.661 44.4787 100.66 45.4326C100.677 46.2445 100.453 47.0431 100.016 47.7274C99.571 48.398 98.942 48.9259 98.2044 49.2475C97.4257 49.6026 96.5195 49.7804 95.4859 49.781C93.7546 49.781 92.3989 49.3414 91.4189 48.462Z" fill="white" style="fill: var(--token-703c781d-88fc-4db0-b0bc-b65130886925, rgb(255, 255, 255));"/> <path d="M115.18 35.0695H118.008C118.036 35.0694 118.064 35.0749 118.09 35.0857C118.116 35.0965 118.14 35.1124 118.16 35.1324C118.18 35.1525 118.196 35.1763 118.207 35.2026C118.218 35.2288 118.223 35.2569 118.223 35.2853V46.2633C118.224 46.3206 118.246 46.3755 118.287 46.4159C118.328 46.4564 118.383 46.4791 118.44 46.4791H123.245C123.303 46.4791 123.358 46.5018 123.398 46.5422C123.439 46.5826 123.462 46.6375 123.462 46.6948V49.1623C123.462 49.1907 123.457 49.2188 123.446 49.2451C123.435 49.2713 123.419 49.2951 123.399 49.3152C123.378 49.3352 123.355 49.3511 123.328 49.3619C123.302 49.3727 123.274 49.3781 123.245 49.378H115.18C115.152 49.3781 115.124 49.3727 115.097 49.3619C115.071 49.3511 115.047 49.3352 115.027 49.3151C115.007 49.295 114.991 49.2712 114.981 49.245C114.97 49.2187 114.964 49.1906 114.964 49.1623V35.2853C114.964 35.2569 114.97 35.2288 114.981 35.2026C114.991 35.1763 115.007 35.1525 115.027 35.1324C115.047 35.1124 115.071 35.0965 115.097 35.0857C115.124 35.0749 115.152 35.0694 115.18 35.0695Z" fill="white" style="fill: var(--token-703c781d-88fc-4db0-b0bc-b65130886925, rgb(255, 255, 255));"/> <path d="M138.615 35.2852H141.612C141.651 35.2854 141.69 35.296 141.723 35.3161C141.757 35.3361 141.784 35.3647 141.803 35.399L146.227 43.6477C146.25 43.6899 146.286 43.7232 146.33 43.7425C146.374 43.7617 146.423 43.7658 146.47 43.754C146.517 43.7422 146.558 43.7152 146.588 43.6773C146.617 43.6394 146.633 43.5928 146.634 43.5447V35.5029C146.634 35.4458 146.657 35.3911 146.697 35.3506C146.737 35.3102 146.792 35.2874 146.849 35.2872H149.537C149.566 35.287 149.594 35.2925 149.62 35.3033C149.647 35.3141 149.671 35.33 149.691 35.35C149.711 35.3701 149.727 35.3939 149.738 35.4201C149.749 35.4464 149.754 35.4745 149.754 35.5029V49.1641C149.754 49.1925 149.749 49.2206 149.738 49.2469C149.727 49.2731 149.711 49.297 149.691 49.317C149.671 49.3371 149.647 49.3529 149.62 49.3637C149.594 49.3745 149.566 49.38 149.537 49.3799H146.546C146.507 49.381 146.467 49.3712 146.433 49.3515C146.398 49.3318 146.369 49.3029 146.35 49.2681L141.925 41.0194C141.903 40.9772 141.867 40.9437 141.823 40.9242C141.78 40.9046 141.731 40.9001 141.684 40.9113C141.638 40.9226 141.596 40.9489 141.567 40.9862C141.537 41.0235 141.52 41.0697 141.519 41.1174V49.1592C141.519 49.2165 141.496 49.2714 141.455 49.3118C141.415 49.3523 141.36 49.375 141.303 49.375H138.614C138.557 49.375 138.502 49.3522 138.462 49.3118C138.421 49.2713 138.399 49.2164 138.399 49.1592V35.501C138.399 35.4437 138.421 35.3889 138.462 35.3484C138.502 35.3079 138.558 35.2852 138.615 35.2852Z" fill="white" style="fill: var(--token-703c781d-88fc-4db0-b0bc-b65130886925, rgb(255, 255, 255));"/> <path d="M151.385 35.2852H159.569C159.626 35.2852 159.681 35.3079 159.722 35.3483C159.762 35.3888 159.785 35.4437 159.786 35.501V37.686C159.786 37.7434 159.763 37.7986 159.722 37.8392C159.682 37.8799 159.626 37.9027 159.569 37.9027H154.647C154.589 37.9027 154.534 37.9254 154.494 37.9658C154.453 38.0063 154.43 38.0611 154.43 38.1185V40.887C154.43 40.9445 154.453 40.9996 154.494 41.0402C154.534 41.0809 154.589 41.1037 154.647 41.1037H159.569C159.598 41.1036 159.626 41.1092 159.653 41.1203C159.68 41.1314 159.704 41.1477 159.724 41.1683C159.744 41.1888 159.76 41.2133 159.771 41.2401C159.781 41.2669 159.786 41.2955 159.786 41.3244V43.4496C159.786 43.478 159.78 43.5061 159.769 43.5323C159.758 43.5586 159.742 43.5824 159.722 43.6025C159.702 43.6225 159.678 43.6384 159.652 43.6492C159.625 43.6599 159.597 43.6654 159.569 43.6653H154.647C154.589 43.6653 154.534 43.688 154.494 43.7284C154.453 43.7689 154.43 43.8237 154.43 43.8811V46.5495C154.43 46.578 154.436 46.6061 154.447 46.6323C154.457 46.6586 154.473 46.6824 154.494 46.7025C154.514 46.7225 154.538 46.7384 154.564 46.7492C154.59 46.7599 154.618 46.7654 154.647 46.7653H159.569C159.626 46.7653 159.682 46.7881 159.722 46.8288C159.763 46.8694 159.786 46.9246 159.786 46.982V49.167C159.785 49.2244 159.762 49.2792 159.722 49.3197C159.681 49.3601 159.626 49.3828 159.569 49.3828H151.385C151.328 49.3828 151.273 49.3601 151.232 49.3196C151.192 49.2791 151.169 49.2243 151.169 49.167V35.501C151.169 35.4437 151.192 35.3889 151.232 35.3484C151.273 35.3079 151.328 35.2852 151.385 35.2852Z" fill="white" style="fill: var(--token-703c781d-88fc-4db0-b0bc-b65130886925, rgb(255, 255, 255));"/> <path d="M81.8611 44.3106L83.2537 39.3894C83.263 39.3561 83.283 39.3267 83.3106 39.3057C83.3383 39.2847 83.372 39.2734 83.4066 39.2734C83.4413 39.2734 83.475 39.2847 83.5027 39.3057C83.5303 39.3267 83.5503 39.3561 83.5596 39.3894L84.9522 44.3106C84.9612 44.3417 84.9629 44.3744 84.957 44.4063C84.9511 44.4381 84.9379 44.4681 84.9184 44.4939C84.8988 44.5197 84.8736 44.5406 84.8445 44.5549C84.8155 44.5692 84.7836 44.5766 84.7512 44.5764H82.0621C82.0298 44.5764 81.998 44.5689 81.969 44.5545C81.9401 44.5401 81.9149 44.5193 81.8955 44.4935C81.876 44.4678 81.8627 44.4378 81.8568 44.4061C81.8508 44.3744 81.8523 44.3417 81.8611 44.3106ZM89.7577 49.17L85.0738 35.3931C85.0633 35.3616 85.0432 35.3343 85.0163 35.3149C84.9893 35.2955 84.957 35.2852 84.9238 35.2852H81.8699C81.8367 35.285 81.8042 35.2953 81.7773 35.3147C81.7503 35.3341 81.7302 35.3615 81.7198 35.3931L77.0556 49.17C77.0475 49.1939 77.0452 49.2193 77.0489 49.2442C77.0526 49.2692 77.0622 49.2929 77.0768 49.3134C77.0915 49.3339 77.1108 49.3506 77.1332 49.3622C77.1556 49.3737 77.1804 49.3798 77.2056 49.3799H80.2635C80.3105 49.3799 80.3563 49.3646 80.3938 49.3363C80.4313 49.308 80.4586 49.2682 80.4714 49.2229L81.0598 47.136H85.7496L86.338 49.2229C86.3509 49.2681 86.3782 49.3078 86.4157 49.3361C86.4532 49.3644 86.4989 49.3798 86.5459 49.3799H89.6037C89.6289 49.3798 89.6538 49.3737 89.6762 49.3622C89.6986 49.3506 89.7179 49.3339 89.7326 49.3134C89.7472 49.2929 89.7568 49.2692 89.7605 49.2442C89.7642 49.2193 89.7619 49.1939 89.7538 49.17" fill="white" style="fill: var(--token-703c781d-88fc-4db0-b0bc-b65130886925, rgb(255, 255, 255));"/> <path d="M129.247 44.3106L130.639 39.3894C130.649 39.356 130.669 39.3266 130.696 39.3057C130.724 39.2847 130.758 39.2734 130.792 39.2734C130.827 39.2734 130.861 39.2847 130.888 39.3057C130.916 39.3266 130.936 39.356 130.945 39.3894L132.339 44.3106C132.347 44.3417 132.349 44.3744 132.343 44.4061C132.336 44.4379 132.323 44.4677 132.304 44.4935C132.284 44.5192 132.259 44.54 132.23 44.5544C132.201 44.5688 132.169 44.5763 132.137 44.5763H129.448C129.416 44.5756 129.385 44.5676 129.356 44.5529C129.328 44.5382 129.303 44.5172 129.284 44.4915C129.266 44.4659 129.253 44.4362 129.247 44.4049C129.241 44.3735 129.243 44.3412 129.252 44.3106H129.247ZM137.143 49.1699L132.459 35.395C132.449 35.3635 132.429 35.336 132.402 35.3166C132.375 35.2973 132.343 35.2869 132.309 35.2871H129.255C129.222 35.2869 129.19 35.2973 129.163 35.3166C129.136 35.336 129.116 35.3635 129.105 35.395L124.441 49.1699C124.433 49.1939 124.431 49.2194 124.435 49.2444C124.438 49.2695 124.448 49.2932 124.463 49.3137C124.477 49.3343 124.497 49.351 124.519 49.3625C124.542 49.3739 124.567 49.3799 124.592 49.3798H127.649C127.696 49.3799 127.742 49.3647 127.78 49.3364C127.818 49.308 127.845 49.2682 127.858 49.2229L128.446 47.136H133.135L133.724 49.2229C133.737 49.2681 133.764 49.3078 133.801 49.3361C133.839 49.3644 133.884 49.3797 133.931 49.3798H136.989C137.014 49.3797 137.039 49.3737 137.062 49.3621C137.084 49.3506 137.103 49.3338 137.118 49.3133C137.133 49.2928 137.142 49.2691 137.146 49.2442C137.15 49.2193 137.147 49.1938 137.139 49.1699" fill="white" style="fill: var(--token-703c781d-88fc-4db0-b0bc-b65130886925, rgb(255, 255, 255));"/> <path d="M113.261 35.2852H110.432C110.374 35.2852 110.32 35.308 110.279 35.3484C110.239 35.3889 110.216 35.4438 110.216 35.501V40.7664C110.216 40.7949 110.21 40.823 110.199 40.8493C110.189 40.8756 110.173 40.8995 110.152 40.9196C110.132 40.9398 110.108 40.9557 110.082 40.9666C110.056 40.9775 110.028 40.9831 109.999 40.9831H105.56C105.531 40.9831 105.503 40.9775 105.477 40.9666C105.451 40.9557 105.427 40.9397 105.407 40.9196C105.387 40.8995 105.371 40.8755 105.36 40.8493C105.349 40.823 105.344 40.7948 105.344 40.7664V35.3931C105.344 35.3358 105.321 35.2809 105.28 35.2405C105.239 35.2001 105.184 35.1774 105.127 35.1774H102.298C102.241 35.1776 102.186 35.2004 102.145 35.2408C102.105 35.2812 102.082 35.336 102.082 35.3931V49.1622C102.082 49.2193 102.105 49.2741 102.145 49.3145C102.186 49.3549 102.241 49.3777 102.298 49.378H105.127C105.184 49.378 105.239 49.3553 105.28 49.3148C105.321 49.2744 105.344 49.2195 105.344 49.1622V43.9968C105.344 43.9396 105.367 43.8847 105.407 43.8443C105.447 43.8038 105.502 43.7811 105.56 43.7811H109.999C110.056 43.7811 110.111 43.8038 110.152 43.8442C110.193 43.8846 110.216 43.9395 110.216 43.9968V49.1622C110.216 49.2194 110.239 49.2743 110.279 49.3148C110.32 49.3552 110.374 49.378 110.432 49.378H113.261C113.318 49.378 113.373 49.3552 113.414 49.3148C113.454 49.2743 113.477 49.2194 113.477 49.1622V35.501C113.477 35.4438 113.454 35.3889 113.414 35.3484C113.373 35.308 113.318 35.2852 113.261 35.2852Z" fill="white" style="fill: var(--token-703c781d-88fc-4db0-b0bc-b65130886925, rgb(255, 255, 255));"/> <path d="M45.6937 36.9417L49.2684 38.2539C49.846 38.4579 50.5492 38.1852 50.5492 37.7576V28.7018C50.5492 28.4949 50.3756 28.3096 50.0961 28.2115L46.5214 26.8993C45.9438 26.6953 45.2406 26.967 45.2406 27.3897V36.4455C45.2406 36.6524 45.4152 36.8427 45.6937 36.9417Z" fill="white" style="fill: var(--token-703c781d-88fc-4db0-b0bc-b65130886925, rgb(255, 255, 255));"/> <path d="M45.6937 53.1977L49.2684 54.5099C49.846 54.7139 50.5492 54.4422 50.5492 54.0147V44.9589C50.5492 44.7519 50.3756 44.5617 50.0961 44.4626L46.5214 43.1504C45.9438 42.9465 45.2406 43.2191 45.2406 43.6467V52.7005C45.2406 52.9074 45.4152 53.0977 45.6937 53.1958" fill="white" style="fill: var(--token-703c781d-88fc-4db0-b0bc-b65130886925, rgb(255, 255, 255));"/> <path d="M39.074 33.9132L42.6487 35.2254C43.2263 35.4294 43.9236 35.1568 43.9236 34.7292V24.877C43.9236 24.6701 43.75 24.4798 43.4705 24.3808L39.9017 23.0696C39.3231 22.8656 38.6209 23.1373 38.6209 23.5599V33.417C38.6209 33.6239 38.7945 33.8152 39.074 33.9132Z" fill="white" style="fill: var(--token-703c781d-88fc-4db0-b0bc-b65130886925, rgb(255, 255, 255));"/> <path d="M39.074 55.6191L42.6487 56.9312C43.2263 57.1352 43.9236 56.8636 43.9236 56.435V46.6084C43.9236 46.4014 43.75 46.2112 43.4705 46.1121L39.9017 44.8009C39.3231 44.5969 38.6209 44.8686 38.6209 45.2962V55.1228C38.6209 55.3298 38.7945 55.52 39.074 55.6191Z" fill="white" style="fill: var(--token-703c781d-88fc-4db0-b0bc-b65130886925, rgb(255, 255, 255));"/> <path d="M37.3085 25.2467C37.3085 25.0398 37.134 24.8544 36.8545 24.7505L33.2808 23.4383C32.7032 23.2343 32 23.507 32 23.9345V54.7541C32 54.9611 32.1736 55.1523 32.4531 55.2504L36.0277 56.5635C36.6054 56.7665 37.3085 56.4949 37.3085 56.0673V25.2467Z" fill="white" style="fill: var(--token-703c781d-88fc-4db0-b0bc-b65130886925, rgb(255, 255, 255));"/> <path d="M56.7138 33.4288L53.1391 32.1166C52.5615 31.9126 51.8642 32.1852 51.8642 32.6128V47.4862C51.8642 47.6931 52.0378 47.8833 52.3173 47.9814L55.892 49.2936C56.4696 49.4976 57.1728 49.2259 57.1728 48.7983V33.925C57.1728 33.7181 56.9982 33.5278 56.7187 33.4288" fill="white" style="fill: var(--token-703c781d-88fc-4db0-b0bc-b65130886925, rgb(255, 255, 255));"/> </svg>