<svg width="192" height="80" viewBox="0 0 192 80" fill="none" xmlns="http://www.w3.org/2000/svg"> <path d="M76.4482 39.1299C76.4482 33.5383 80.0405 29.6636 85.2015 29.6636C87.2023 29.6636 89.0212 30.2204 90.4763 31.3341V34.8376C88.9302 33.3527 87.1796 32.6102 85.2925 32.6102C81.7911 32.6102 79.5403 35.116 79.5403 39.1299C79.5403 43.0743 81.7911 45.6497 85.2925 45.6497C87.1796 45.6497 88.9075 44.9072 90.4763 43.4223V46.9258C89.0212 48.0395 87.2023 48.5963 85.2015 48.5963C80.0405 48.5963 76.4482 44.7216 76.4482 39.1299Z" fill="white" style="fill: var(--token-703c781d-88fc-4db0-b0bc-b65130886925, rgb(255, 255, 255));"/> <path d="M95.8875 42.5639C96.1603 44.8376 97.5472 45.9513 99.9799 45.9513C101.594 45.9513 103.072 45.5105 104.232 44.6984V47.413C103.049 48.1787 101.526 48.5963 99.8891 48.5963C95.6829 48.5963 93.0682 45.9513 93.0682 41.7285C93.0682 37.5755 95.5691 34.7216 99.2297 34.7216C102.64 34.7216 104.936 37.3666 104.936 41.3805V42.5639H95.8875ZM95.9557 40.29H102.208C102.003 38.3179 100.98 37.297 99.2524 37.297C97.479 37.2738 96.2967 38.3643 95.9557 40.29Z" fill="white" style="fill: var(--token-703c781d-88fc-4db0-b0bc-b65130886925, rgb(255, 255, 255));"/> <path d="M118.965 39.5708V48.3179H116.1V40.1277C116.1 38.4571 115.168 37.4594 113.69 37.4594C112.462 37.4594 111.348 38.1786 110.802 39.3388V48.3179H107.938V35.0001H110.598V36.9258C111.462 35.5105 112.826 34.7216 114.508 34.7216C117.214 34.7216 118.965 36.6473 118.965 39.5708Z" fill="white" style="fill: var(--token-703c781d-88fc-4db0-b0bc-b65130886925, rgb(255, 255, 255));"/> <path d="M121.738 47.413V44.4432C123.08 45.5105 124.648 46.0209 126.49 46.0209C128.218 46.0209 129.036 45.5569 129.036 44.5824C129.036 43.8167 128.582 43.3527 127.558 43.1207L125.104 42.5639C123.012 42.0766 121.897 40.7773 121.897 38.8283C121.897 36.2993 123.898 34.7216 127.172 34.7216C128.787 34.7216 130.196 35.0697 131.219 35.7193V38.6891C130.083 37.7378 128.719 37.2506 127.127 37.2506C125.512 37.2506 124.671 37.761 124.671 38.7123C124.671 39.4084 125.126 39.8492 126.035 40.0349L128.491 40.6149C130.696 41.1486 131.856 42.4014 131.856 44.3504C131.856 46.9722 129.764 48.5499 126.377 48.5499C124.58 48.5963 123.012 48.1787 121.738 47.413Z" fill="white" style="fill: var(--token-703c781d-88fc-4db0-b0bc-b65130886925, rgb(255, 255, 255));"/> <path d="M142.406 35.0001H145.27V48.2947H142.678V46.2994C141.814 47.7611 140.472 48.5731 138.768 48.5731C136.13 48.5731 134.334 46.6242 134.334 43.7472V35.0001H137.199V43.1671C137.199 44.8144 138.154 45.8353 139.609 45.8353C140.837 45.8353 141.905 45.1161 142.428 43.9095V35.0001H142.406Z" fill="white" style="fill: var(--token-703c781d-88fc-4db0-b0bc-b65130886925, rgb(255, 255, 255));"/> <path d="M148.339 47.413V44.4432C149.681 45.5105 151.249 46.0209 153.091 46.0209C154.819 46.0209 155.637 45.5569 155.637 44.5824C155.637 43.8167 155.183 43.3527 154.159 43.1207L151.705 42.5639C149.613 42.0766 148.498 40.7773 148.498 38.8283C148.498 36.2993 150.499 34.7216 153.773 34.7216C155.388 34.7216 156.798 35.0697 157.82 35.7193V38.6891C156.684 37.7378 155.32 37.2506 153.728 37.2506C152.113 37.2506 151.272 37.761 151.272 38.7123C151.272 39.4084 151.727 39.8492 152.637 40.0349L155.092 40.6149C157.297 41.1486 158.457 42.4014 158.457 44.3504C158.457 46.9722 156.365 48.5499 152.978 48.5499C151.159 48.5963 149.613 48.1787 148.339 47.413Z" fill="white" style="fill: var(--token-703c781d-88fc-4db0-b0bc-b65130886925, rgb(255, 255, 255));"/> <path d="M67.9449 40.0116L60.3738 26.6241C59.8054 25.6265 58.7596 25 57.6227 25H44.3222C43.1854 25 42.1395 25.6265 41.5711 26.6241L40.6162 28.3179H57.6L55.7129 31.6357H38.7291L36.842 34.9768H53.8258L51.9387 38.2947H34.9549L34 40.0116L34.9322 41.6357H51.916L53.7804 44.9536H36.7965L38.6836 48.2714H55.6675L57.5545 51.5894H40.5707L41.5711 53.3526C42.1395 54.3503 43.1854 54.9768 44.3222 54.9768H57.6227C58.7596 54.9768 59.8054 54.3503 60.3738 53.3526L67.9449 40.0116Z" fill="white" style="fill: var(--token-703c781d-88fc-4db0-b0bc-b65130886925, rgb(255, 255, 255));"/> </svg>