<svg width="192" height="80" viewBox="0 0 192 80" fill="none" xmlns="http://www.w3.org/2000/svg"> <path d="M67.4348 35.8635C64.0424 35.8635 61.2732 33.0943 61.2732 29.702C61.2732 26.3097 64.0424 23.5404 67.4348 23.5404C70.8271 23.5404 73.5963 26.3097 73.5963 29.702C73.579 33.1116 70.8271 35.8635 67.4348 35.8635ZM67.4348 22.052C63.2117 22.052 59.7674 25.4962 59.7674 29.7193C59.7674 33.9424 63.2117 37.3866 67.4348 37.3866C71.6578 37.3866 75.1021 33.9424 75.1021 29.7193C75.1021 25.4962 71.6578 22.052 67.4348 22.052Z" fill="white" style="fill: var(--token-703c781d-88fc-4db0-b0bc-b65130886925, rgb(255, 255, 255));"/> <path d="M133.516 29.8058C133.1 29.5981 130.608 28.3001 130.244 28.1097C128.929 27.4347 128.462 26.8462 128.462 25.8424C128.462 24.4404 129.604 23.5404 131.387 23.5404C132.425 23.5404 133.446 23.9904 134.035 24.3366C134.139 24.3885 134.277 24.4231 134.398 24.4231C134.814 24.4231 135.16 24.0943 135.16 23.6789C135.16 23.402 135.004 23.1597 134.779 23.0212C134.035 22.6058 132.771 22.0347 131.404 22.0347C128.791 22.0347 126.973 23.5924 126.973 25.8424C126.973 27.8501 128.289 28.802 129.587 29.4597C129.95 29.6501 132.477 30.9481 132.858 31.1558C133.862 31.6751 134.416 32.4712 134.416 33.3712C134.416 34.5827 133.394 35.8635 131.491 35.8635C129.639 35.8635 128.202 34.6174 127.821 34.2366L127.7 34.1154L126.575 35.1366L126.714 35.2577C127.216 35.7424 129.016 37.352 131.491 37.352C134.26 37.352 135.921 35.3097 135.921 33.3366C135.904 31.9001 135.039 30.602 133.516 29.8058Z" fill="white" style="fill: var(--token-703c781d-88fc-4db0-b0bc-b65130886925, rgb(255, 255, 255));"/> <path d="M51.7193 23.5577C53.3636 23.5577 54.904 24.1981 56.0809 25.3577C56.3578 25.6347 56.877 25.6347 57.154 25.3577C57.2924 25.2193 57.379 25.0289 57.379 24.8212C57.379 24.6135 57.3097 24.4231 57.154 24.2847L57.0674 24.1981C55.6309 22.8135 53.7443 22.052 51.7366 22.052C47.5136 22.052 44.0693 25.4962 44.0693 29.7193C44.0693 33.9424 47.5136 37.3866 51.7366 37.3866C53.9693 37.3866 55.977 36.4347 57.379 34.8943L56.3059 33.8212C55.1809 35.0674 53.5366 35.8635 51.7366 35.8635C48.3443 35.8635 45.5751 33.0943 45.5751 29.702C45.5578 26.327 48.327 23.5577 51.7193 23.5577Z" fill="white" style="fill: var(--token-703c781d-88fc-4db0-b0bc-b65130886925, rgb(255, 255, 255));"/> <path d="M103.677 23.5577C105.321 23.5577 106.862 24.1981 108.021 25.3577C108.298 25.6347 108.817 25.6347 109.094 25.3577C109.233 25.2193 109.319 25.0289 109.319 24.8212C109.319 24.6135 109.233 24.4231 109.094 24.2847L109.008 24.1981C107.571 22.8135 105.685 22.052 103.677 22.052C99.4539 22.052 96.0097 25.4962 96.0097 29.7193C96.0097 33.9424 99.4539 37.3866 103.677 37.3866C105.91 37.3866 107.917 36.4347 109.319 34.8943L108.246 33.8212C107.121 35.0674 105.494 35.8635 103.677 35.8635C100.285 35.8635 97.5154 33.0943 97.5154 29.702C97.5154 26.327 100.285 23.5577 103.677 23.5577Z" fill="white" style="fill: var(--token-703c781d-88fc-4db0-b0bc-b65130886925, rgb(255, 255, 255));"/> <path d="M90.6963 22.052C90.4194 22.052 90.1944 22.2424 90.0732 22.4674C89.9521 22.7097 85.5559 33.5443 85.5559 33.5443C85.5559 33.5443 81.1598 22.6924 81.0386 22.4674C80.9175 22.2251 80.6925 22.052 80.4155 22.052C80.0867 22.052 79.8271 22.2943 79.7405 22.6058C79.654 22.9174 77.179 36.5731 77.179 36.5731C77.179 36.6251 77.1617 36.6597 77.1617 36.7116C77.1617 37.0924 77.4732 37.3866 77.8367 37.3866C78.1655 37.3866 78.4425 37.1443 78.5117 36.8328L80.6578 25.1501C80.6578 25.1501 84.7944 35.3616 84.9155 35.6039C85.0367 35.8462 85.2617 36.0366 85.5559 36.0366C85.8328 36.0366 86.0751 35.8462 86.1963 35.6039C86.3175 35.3616 90.454 25.1501 90.454 25.1501L92.6867 37.3001H94.0713C94.0713 37.3001 91.4578 22.9174 91.3713 22.6058C91.2675 22.2943 91.0251 22.052 90.6963 22.052Z" fill="white" style="fill: var(--token-703c781d-88fc-4db0-b0bc-b65130886925, rgb(255, 255, 255));"/> <path d="M115.671 30.1347L117.956 24.527L120.241 30.1347H115.671ZM117.939 22.052C117.644 22.052 117.437 22.2424 117.298 22.4847C117.177 22.727 111.621 36.4347 111.621 36.4347C111.587 36.5212 111.569 36.6077 111.569 36.6943C111.569 37.0751 111.864 37.3693 112.244 37.3693C112.539 37.3693 112.781 37.1962 112.885 36.9366L115.048 31.6404H120.846L123.148 37.2827H124.619C124.619 37.2827 118.717 22.7097 118.596 22.4674C118.458 22.2424 118.233 22.052 117.939 22.052Z" fill="white" style="fill: var(--token-703c781d-88fc-4db0-b0bc-b65130886925, rgb(255, 255, 255));"/> <path d="M147.777 22.8827C147.777 22.4674 147.431 22.1212 147.016 22.1212H138.5C138.085 22.1212 137.739 22.4501 137.739 22.8827C137.739 23.2981 138.067 23.627 138.5 23.627H142.083V37.2827H143.467V23.627H147.033C147.448 23.6443 147.777 23.2981 147.777 22.8827Z" fill="white" style="fill: var(--token-703c781d-88fc-4db0-b0bc-b65130886925, rgb(255, 255, 255));"/> <path d="M89.9001 42.527C89.1386 42.527 88.6713 43.0635 88.6713 43.7212V57.8616H91.129V43.7212C91.129 43.0635 90.6617 42.527 89.9001 42.527Z" fill="white" style="fill: var(--token-703c781d-88fc-4db0-b0bc-b65130886925, rgb(255, 255, 255));"/> <path d="M62.0174 51.8039V43.7212C62.0174 43.0635 61.5328 42.527 60.7886 42.527C60.027 42.527 59.5597 43.0635 59.5597 43.7212V51.7174C59.5597 55.1443 61.9655 57.9308 65.8251 57.9308C69.6674 57.9308 72.0905 55.1443 72.0905 51.7174V42.5962H69.6155V51.7866C69.6155 53.8116 68.2655 55.6116 65.8251 55.6116C63.3674 55.6289 62.0174 53.8289 62.0174 51.8039Z" fill="white" style="fill: var(--token-703c781d-88fc-4db0-b0bc-b65130886925, rgb(255, 255, 255));"/> <path d="M121.539 45.0193C122.352 45.0193 122.837 44.5001 122.837 43.8251C122.837 43.1501 122.335 42.6308 121.539 42.6308H114.01C113.317 42.6308 112.816 43.1327 112.816 43.8251V56.702C112.816 57.377 113.317 57.8789 114.01 57.8789H122.75V55.4904H115.273V51.0597H120.916C121.764 51.0597 122.248 50.5578 122.248 49.8654C122.248 49.1731 121.781 48.6712 120.916 48.6712H115.273V45.0193H121.539Z" fill="white" style="fill: var(--token-703c781d-88fc-4db0-b0bc-b65130886925, rgb(255, 255, 255));"/> <path d="M51.3385 55.5077H47.4962V50.9558H51.3385C53.1039 50.9558 53.952 51.977 53.952 53.2404C53.952 54.4866 53.0693 55.5077 51.3385 55.5077ZM47.4962 45.002H51.1827C52.5673 45.002 53.2423 45.8327 53.2423 46.8539C53.2423 47.8751 52.4981 48.7058 51.1827 48.7058H47.4962V45.002ZM54.1943 49.6058C54.6097 49.3462 55.7347 48.4635 55.7347 46.4731C55.7347 44.1366 54.0558 42.5962 51.4943 42.5962H46.2327C45.5231 42.5962 45.0385 43.0808 45.0385 43.7904V57.8443H51.8058C54.5404 57.8443 56.4443 55.8539 56.4443 53.2924C56.4443 50.5924 54.627 49.8135 54.1943 49.6058Z" fill="white" style="fill: var(--token-703c781d-88fc-4db0-b0bc-b65130886925, rgb(255, 255, 255));"/> <path d="M97.204 42.527C96.4598 42.527 95.9752 43.0635 95.9752 43.7039V56.7539C95.9752 57.4116 96.5463 57.9308 97.204 57.9308C97.8444 57.9308 98.4156 57.4116 98.4156 56.7539V47.3385C98.4156 47.3385 104.404 54.9885 105.979 57.0135C106.377 57.5154 106.654 57.9481 107.364 57.9481C108.073 57.9481 108.558 57.4289 108.558 56.7712V42.6308H106.135V53.1885C106.135 53.1885 99.4713 44.6385 98.5367 43.4443C98.104 42.8904 97.7752 42.527 97.204 42.527Z" fill="white" style="fill: var(--token-703c781d-88fc-4db0-b0bc-b65130886925, rgb(255, 255, 255));"/> <path d="M74.9463 55.6808C75.2579 56.0789 76.6944 57.9481 79.8617 57.9481C82.9771 57.9481 85.0886 56.1654 85.0886 53.6558C85.0886 52.0116 84.4482 50.6962 82.0079 49.5193C81.3502 49.2077 79.5329 48.325 79.5329 48.325C78.5636 47.8577 78.1309 47.3039 78.1309 46.5424C78.1309 45.7462 78.7886 44.8808 80.3983 44.8808C81.3156 44.8808 82.0252 45.175 82.3886 45.3481C82.579 45.4347 83.0117 45.6424 83.4271 45.6424C83.9636 45.6424 84.5521 45.2616 84.5521 44.4827C84.5521 43.825 84.0848 43.4789 83.6694 43.2885C83.0117 42.977 81.9906 42.527 80.2771 42.527C77.5598 42.527 75.5521 44.2404 75.5521 46.6289C75.5521 48.8097 77.0233 49.9 78.7886 50.7481C79.1175 50.9039 80.4329 51.5443 80.7963 51.7174C81.9213 52.2539 82.5098 52.7731 82.5098 53.7077C82.5098 54.7289 81.5579 55.577 80.1213 55.577C78.0617 55.577 76.954 54.227 76.7636 54.002L74.9463 55.6808Z" fill="white" style="fill: var(--token-703c781d-88fc-4db0-b0bc-b65130886925, rgb(255, 255, 255));"/> <path d="M125.277 55.6808C125.589 56.0789 127.042 57.9481 130.21 57.9481C133.308 57.9481 135.419 56.1654 135.419 53.6558C135.419 52.0116 134.779 50.6962 132.339 49.5193C131.698 49.2077 129.864 48.325 129.864 48.325C128.894 47.8577 128.462 47.3039 128.462 46.5424C128.462 45.7462 129.119 44.8808 130.729 44.8808C131.646 44.8808 132.339 45.175 132.719 45.3481C132.91 45.4347 133.342 45.6424 133.758 45.6424C134.294 45.6424 134.883 45.2616 134.883 44.4827C134.883 43.825 134.416 43.4789 134 43.2885C133.342 42.977 132.304 42.527 130.608 42.527C127.891 42.527 125.883 44.2404 125.883 46.6289C125.883 48.8097 127.354 49.9 129.119 50.7481C129.466 50.9039 130.781 51.5443 131.144 51.7174C132.252 52.2539 132.841 52.7731 132.841 53.7077C132.841 54.7289 131.889 55.577 130.452 55.577C128.375 55.577 127.285 54.227 127.094 54.002L125.277 55.6808Z" fill="white" style="fill: var(--token-703c781d-88fc-4db0-b0bc-b65130886925, rgb(255, 255, 255));"/> <path d="M137.756 55.6808C138.067 56.0789 139.504 57.9481 142.671 57.9481C145.769 57.9481 147.898 56.1654 147.898 53.6558C147.898 52.0116 147.24 50.6962 144.817 49.5193C144.16 49.2077 142.325 48.325 142.325 48.325C141.373 47.8577 140.94 47.3039 140.94 46.5424C140.94 45.7462 141.598 44.8808 143.19 44.8808C144.108 44.8808 144.817 45.175 145.198 45.3481C145.371 45.4347 145.804 45.6424 146.219 45.6424C146.756 45.6424 147.344 45.2616 147.344 44.4827C147.344 43.825 146.877 43.4789 146.462 43.2885C145.804 42.977 144.783 42.527 143.069 42.527C140.352 42.527 138.344 44.2404 138.344 46.6289C138.344 48.8097 139.798 49.9 141.581 50.7481C141.91 50.9039 143.225 51.5443 143.589 51.7174C144.714 52.2539 145.302 52.7731 145.302 53.7077C145.302 54.7289 144.35 55.577 142.914 55.577C140.854 55.577 139.746 54.227 139.556 54.002L137.756 55.6808Z" fill="white" style="fill: var(--token-703c781d-88fc-4db0-b0bc-b65130886925, rgb(255, 255, 255));"/> </svg>