<svg width="180" height="80" viewBox="0 0 180 80" fill="none" xmlns="http://www.w3.org/2000/svg"> <path d="M110.492 33.7168C106.167 33.7168 102.16 37.3048 102.16 42.7228C102.16 48.5278 106.274 51.9043 110.915 51.9043C115.028 51.9043 117.736 49.4773 118.65 46.4878L115.205 45.3973C114.641 47.0863 113.376 48.3868 110.916 48.3868C108.384 48.3868 106.346 46.5223 106.241 43.9183H118.756C118.792 43.8478 118.863 43.2853 118.863 42.6178C118.86 37.1998 115.766 33.7168 110.492 33.7168ZM106.343 40.9288C106.484 39.0988 107.96 37.1293 110.526 37.1293C113.339 37.1293 114.674 38.9233 114.745 40.9288H106.343Z" fill="white" style="fill: var(--token-703c781d-88fc-4db0-b0bc-b65130886925, rgb(255, 255, 255));"/> <path d="M147.041 48.763V40.2595C147.041 35.722 144.087 33.751 140.993 33.751C138.778 33.751 136.774 34.525 135.438 36.7765C134.523 34.771 132.555 33.751 130.305 33.751C128.371 33.751 126.226 34.666 125.243 36.424V34.243H121.341V51.376H125.384V41.209C125.384 39.028 126.754 37.4095 128.935 37.4095C131.255 37.4095 132.239 38.9575 132.239 40.927V51.376H136.247V41.209C136.247 39.0985 137.653 37.4095 139.797 37.4095C142.083 37.4095 143.103 38.9215 143.103 40.927V49.159H143.106C143.106 49.8625 143.21 50.989 143.281 51.376H147.183C147.152 51.127 147.038 50.077 147.012 48.7645L147.041 48.763Z" fill="white" style="fill: var(--token-703c781d-88fc-4db0-b0bc-b65130886925, rgb(255, 255, 255));"/> <path d="M80.0615 48.2803V40.3348L80.0495 40.3183C79.9296 36.7573 77.9508 33.9463 73.9408 33.9463C72.064 33.9463 70.0462 34.7458 68.9339 36.6943V34.4323H65.0049V51.3763H69.0389V41.5993C69.0389 39.3718 70.2561 37.5973 72.5512 37.5973C75.0891 37.5973 76.029 39.2668 76.029 41.3548V49.1833C76.029 49.8793 76.1325 50.9923 76.2029 51.3748H80.2354C80.2009 51.0988 80.0615 49.8118 80.0615 48.2803Z" fill="white" style="fill: var(--token-703c781d-88fc-4db0-b0bc-b65130886925, rgb(255, 255, 255));"/> <path d="M95.9108 29.002V34.9255C94.5362 34.042 92.8707 33.541 91.0269 33.541C85.969 33.541 82.2363 37.345 82.2363 42.547C82.2363 47.7835 85.969 51.5875 91.0269 51.5875C92.9262 51.5875 94.6366 51.058 96.0352 50.122C96.0712 50.575 96.1192 50.9965 96.1567 51.2035H100.029C99.9943 50.9245 99.8549 49.633 99.8549 48.097V29.002H95.9108ZM91.0254 47.956C88.5489 47.956 86.2808 46.072 86.2808 42.5455C86.2808 39.0205 88.5489 37.2055 91.0254 37.2055C93.5378 37.2055 95.7699 39.0205 95.7699 42.5455C95.7699 46.1065 93.5378 47.956 91.0254 47.956Z" fill="white" style="fill: var(--token-703c781d-88fc-4db0-b0bc-b65130886925, rgb(255, 255, 255));"/> <path d="M62.4737 34.4123H58.5356V35.7923C57.7936 34.8443 55.8298 33.7598 53.5167 33.7598C48.4934 33.7598 44.6992 37.4843 44.6992 42.7583C44.6992 48.0293 48.4934 51.7568 53.5167 51.7568C55.8703 51.7568 57.8011 50.6663 58.5401 49.7168L58.6091 49.4693C58.6285 50.1578 58.717 51.0668 58.78 51.4058H62.6475C62.6131 51.1268 62.4737 49.8368 62.4737 48.3023V34.4123ZM53.6576 48.0308C50.742 48.0308 48.4934 45.6398 48.4934 42.7598C48.4934 39.8768 50.742 37.4873 53.6576 37.4873C56.5029 37.4873 58.681 39.8783 58.681 42.7598C58.681 45.6398 56.5029 48.0308 53.6576 48.0308Z" fill="white" style="fill: var(--token-703c781d-88fc-4db0-b0bc-b65130886925, rgb(255, 255, 255));"/> <path d="M43.4514 46.9505C42.8098 47.405 41.7634 47.8475 40.7066 47.6255C39.6947 47.4125 39.2045 46.6565 39.2045 45.8675V38.006L39.2075 38.0015V29H35.214V31.568C35.214 33.08 34.7073 34.241 32.88 34.241H32V37.865H35.1645L35.1675 37.868V46.289C35.1675 49.0085 36.836 51.05 39.5193 51.6155C39.996 51.716 40.4892 51.7655 40.9854 51.7655C41.9733 51.7655 42.9777 51.569 43.9146 51.182C44.2669 51.038 44.5967 50.8655 44.9085 50.6765L43.4514 46.9505Z" fill="white" style="fill: var(--token-703c781d-88fc-4db0-b0bc-b65130886925, rgb(255, 255, 255));"/> <path d="M44.3179 34.2422H40.6797V37.8662H44.3179V34.2422Z" fill="white" fill-opacity="0.5" style="fill: var(--token-703c781d-88fc-4db0-b0bc-b65130886925, rgb(255, 255, 255));"/> </svg>