<svg width="180" height="80" viewBox="0 0 180 80" fill="none" xmlns="http://www.w3.org/2000/svg"> <path d="M142.579 26.1089C142.636 26.0453 142.716 26.0062 142.802 26C142.83 26.0017 142.858 26.0091 142.883 26.0217C142.909 26.0342 142.932 26.0517 142.95 26.073C142.968 26.0943 142.982 26.1191 142.991 26.1458C142.999 26.1725 143.002 26.2006 142.999 26.2283C142.993 26.3164 142.953 26.399 142.888 26.4597C139.943 30.0426 137.802 34.2327 137.802 40.0439C137.802 45.8552 139.954 49.9574 142.888 53.5403C142.953 53.601 142.993 53.6837 142.999 53.7719C143.002 53.7996 142.999 53.8277 142.991 53.8544C142.982 53.881 142.968 53.9058 142.95 53.9271C142.931 53.9484 142.909 53.9658 142.883 53.9784C142.858 53.9909 142.83 53.9983 142.802 54C142.759 53.9971 142.717 53.986 142.679 53.9673C142.641 53.9486 142.607 53.9227 142.579 53.8911L130.026 42.0126C129.707 41.7785 129.449 41.4751 129.271 41.1264C129.093 40.7778 129 40.3933 129 40.0036C129 39.6138 129.093 39.2294 129.271 38.8807C129.449 38.532 129.707 38.2287 130.026 37.9946L142.579 26.1123" fill="white" fill-opacity="0.5" style="fill: var(--token-703c781d-88fc-4db0-b0bc-b65130886925, rgb(255, 255, 255));"/> <path d="M152.021 25C147.043 25 145.098 31.8631 145.098 40.0442C145.098 48.2252 147.043 55 152.021 55C155.007 55 157.555 53.2965 157.565 51.8971C157.564 51.7366 157.529 51.578 157.463 51.431C157.397 51.284 157.301 51.1517 157.18 51.0419C155.763 49.7131 155.211 48.3809 155.204 47.2075C155.204 44.9671 157.195 43.2989 159.037 43.2989C161.581 43.2989 163.063 45.2356 163.063 47.7411C163.063 50.116 162.02 52.0985 160.883 53.6819C160.841 53.7409 160.818 53.8111 160.818 53.8831C160.814 53.9101 160.816 53.9376 160.824 53.9638C160.832 53.99 160.845 54.0145 160.862 54.0356C160.88 54.0568 160.902 54.0742 160.927 54.0869C160.952 54.0996 160.979 54.1072 161.007 54.1093C161.098 54.0998 161.183 54.0569 161.243 53.9892L173.961 42.0268C174.283 41.791 174.545 41.4855 174.726 41.1344C174.906 40.7832 175 40.396 175 40.0035C175 39.6109 174.906 39.2238 174.726 38.8726C174.545 38.5215 174.283 38.2159 173.961 37.9802L161.243 26.0143C161.183 25.9466 161.098 25.9037 161.007 25.8941C160.89 25.8941 160.818 25.9966 160.818 26.1239C160.818 26.1959 160.841 26.2661 160.883 26.3251C162.013 27.9085 163.063 29.8873 163.063 32.2624C163.063 34.7679 161.57 36.7081 159.037 36.7081C157.195 36.7081 155.196 35.0364 155.204 32.796C155.204 31.6261 155.763 30.2938 157.18 28.9616C157.301 28.8517 157.397 28.7193 157.463 28.5723C157.529 28.4254 157.564 28.2669 157.565 28.1064C157.565 26.6928 155.022 25.0035 152.021 25.0035M21.9785 45.1083C21.9671 44.5355 22.099 43.9686 22.363 43.4564C22.6269 42.9442 23.0149 42.5021 23.4936 42.1682C24.6203 41.4302 25.9588 41.059 27.3163 41.108C28.2188 41.097 29.1153 41.2529 29.9579 41.5673V40.1537C29.9362 38.7401 29.3875 37.9414 27.7561 37.924C27.2313 37.941 26.7115 38.029 26.2116 38.1853C26.2662 38.3849 26.2955 38.5902 26.2988 38.7968C26.3096 39.2449 26.1505 39.6813 25.8519 40.0229C25.6939 40.1911 25.5005 40.3243 25.2848 40.4133C25.0692 40.5023 24.8363 40.5452 24.6021 40.5388C24.3828 40.5366 24.166 40.4922 23.9643 40.4084C23.7626 40.3245 23.5799 40.2027 23.4267 40.0501C23.2734 39.8974 23.1526 39.7169 23.0712 39.5188C22.9898 39.3206 22.9494 39.1088 22.9523 38.8955C22.9741 37.1815 25.1107 36.0295 27.9668 36.026C30.2341 36.026 31.6548 36.549 32.418 37.4998C33.1083 38.3549 33.1448 39.5989 33.1448 41.3589V45.953C33.1448 46.84 33.6753 47.0802 34.809 47.2535H34.9398V47.3808C34.8744 48.5892 33.9586 49.091 32.9776 49.1654H32.7232C32.2337 49.1786 31.7509 49.0516 31.3349 48.8003C30.9189 48.549 30.5879 48.1844 30.3831 47.7518C29.3367 48.627 28.0128 49.1261 26.6332 49.1654C23.9986 49.1654 21.9967 47.4337 21.9931 45.0658M102.879 48.5681C102.644 48.2046 102.483 47.8002 102.406 47.3773C102.275 47.522 102.123 47.674 101.887 47.893C101.004 48.7062 99.8323 49.1569 98.6163 49.1512C97.9939 49.1711 97.3746 49.058 96.802 48.8198C96.2294 48.5817 95.7175 48.2243 95.3023 47.7729C94.1505 46.4336 94.1579 44.7373 94.1579 42.3271V40.0052C94.1326 39.0653 93.8307 38.7436 92.9333 38.7224C92.8119 38.7233 92.6906 38.7303 92.57 38.7436H92.4644L92.4245 38.6446C92.3569 38.4854 92.3211 38.3151 92.3192 38.1428C92.3483 37.0191 93.809 36.4182 94.6667 36.2451C94.9498 36.1941 95.2363 36.1634 95.524 36.1533C95.8119 36.1324 96.1009 36.1767 96.3683 36.2828C96.6357 36.3889 96.8741 36.5538 97.0649 36.7645C97.3947 37.2198 97.5549 37.7708 97.519 38.3266L97.4972 42.2918C97.4972 43.7549 97.6026 44.8505 97.937 45.5572C98.2711 46.2641 98.7835 46.5856 99.7208 46.5926C100.127 46.6182 100.533 46.5324 100.892 46.3451C101.251 46.1577 101.549 45.8762 101.752 45.5325C102.137 44.8164 102.323 44.0146 102.29 43.2071V39.9981C102.265 39.0581 101.959 38.7366 101.066 38.7154C100.944 38.7162 100.823 38.7232 100.702 38.7366H100.593L100.553 38.6376C100.483 38.4965 100.439 38.3447 100.422 38.1888C100.451 37.0649 101.912 36.4642 102.773 36.2911C103.056 36.2399 103.343 36.2091 103.631 36.1991C103.919 36.1785 104.209 36.223 104.477 36.3291C104.744 36.4351 104.984 36.5999 105.175 36.8105C105.508 37.2645 105.67 37.8162 105.633 38.3726C105.633 38.8284 105.589 39.6342 105.589 43.0127C105.589 44.4263 105.564 45.2003 105.564 45.4299C105.586 46.4018 105.927 46.8435 106.85 46.8435H107.272L107.312 46.9424C107.378 47.0971 107.414 47.2626 107.417 47.4302C107.381 48.5258 105.916 48.9674 105.066 49.13C104.801 49.1782 104.533 49.2077 104.263 49.2183C104 49.2381 103.736 49.1935 103.496 49.0886C103.255 48.9836 103.046 48.8217 102.886 48.6176M56.5384 42.8254C56.4794 41.0325 57.1297 39.2858 58.3552 37.9451C58.9748 37.318 59.7219 36.8235 60.5491 36.4931C61.3762 36.1626 62.2651 36.0036 63.159 36.026C63.9021 35.9974 64.643 36.1232 65.3323 36.3949C66.0215 36.6667 66.6433 37.0783 67.1561 37.6022C67.9824 38.4892 68.4418 39.6423 68.4459 40.8392C68.4565 41.4547 68.3064 42.0627 68.0098 42.6064L67.9699 42.677H59.9613C60.0958 44.9492 61.582 46.5396 64.1729 46.5644C64.779 46.5684 65.3793 46.4495 65.9354 46.2152C66.4916 45.9809 66.9914 45.6365 67.4031 45.2038L67.4902 45.0977L67.603 45.179C67.7652 45.2957 67.8941 45.4508 67.9774 45.6295C68.0607 45.8083 68.0957 46.0048 68.079 46.2004C68.079 47.5115 66.4911 49.19 62.9918 49.19C62.1369 49.1901 61.2905 49.025 60.5018 48.7043C59.7131 48.3836 58.9978 47.9137 58.3974 47.3219C57.797 46.73 57.3234 46.0281 57.0043 45.2568C56.6851 44.4855 56.5267 43.6603 56.5382 42.8289M85.0009 49.1723C84.1398 49.1828 83.2849 49.0277 82.4855 48.716C81.6861 48.4043 80.9579 47.9421 80.3427 47.3559C79.7087 46.726 79.2108 45.979 78.8781 45.1591C78.5455 44.3391 78.3849 43.4628 78.4057 42.5815C78.3936 41.7204 78.5586 40.8655 78.891 40.0673C79.2235 39.2691 79.7168 38.5435 80.3418 37.9334C80.9667 37.3233 81.7109 36.8408 82.5304 36.5145C83.3499 36.1881 84.2282 36.0244 85.1137 36.033C85.9889 36.0102 86.8599 36.1579 87.6755 36.4674C88.4911 36.777 89.2348 37.2421 89.8627 37.8355C90.8261 38.7613 91.4831 39.946 91.7492 41.2375C92.0154 42.5291 91.8786 43.8685 91.3565 45.0839C90.8344 46.2993 89.9507 47.3352 88.8189 48.0587C87.6871 48.7822 86.3588 49.1602 85.0045 49.1442L85.0009 49.1723ZM109.612 48.7907C109.052 48.6424 108.693 48.3455 108.696 47.8967C108.705 47.6986 108.757 47.5045 108.849 47.3276L108.878 47.2639H108.947C109.265 47.2032 109.565 47.0714 109.823 46.879C110.157 46.6139 110.284 46.2427 110.284 45.2003V39.9311C110.259 39.0476 110.052 38.7403 109.296 38.7189C109.094 38.7221 108.894 38.7435 108.696 38.7826L108.58 38.8037L108.536 38.6978C108.462 38.5191 108.423 38.3285 108.42 38.1358C108.438 37.0756 109.619 36.5455 110.411 36.3053C110.7 36.2154 111.002 36.1678 111.305 36.1638C112.395 36.1638 112.969 36.9167 113.216 37.8849C113.922 36.7576 115.033 36.0119 116.156 36.0084C117.199 36.0084 118.245 36.6728 118.249 37.9307C118.268 38.3965 118.097 38.8507 117.773 39.1943C117.449 39.5379 116.998 39.743 116.519 39.765C116.133 39.7737 115.756 39.6515 115.453 39.4194C115.149 39.1872 114.938 38.8596 114.855 38.4927C114.245 38.6871 113.38 39.4363 113.373 42.0268V45.2071C113.373 46.246 113.525 46.6207 113.827 46.8823C114.19 47.0811 114.588 47.2118 115.001 47.2674H115.07L115.099 47.3311C115.199 47.5221 115.256 47.7318 115.266 47.946C115.266 48.37 114.942 48.6527 114.419 48.8011C113.647 48.9717 112.856 49.0419 112.065 49.0097C111.241 49.0399 110.416 48.9664 109.612 48.7907ZM70.7316 48.7905C70.1719 48.6422 69.8086 48.3416 69.8086 47.8928C69.8155 47.6961 69.8663 47.5031 69.9574 47.3274L69.9866 47.2637H70.0592C70.3804 47.2029 70.6835 47.0725 70.9459 46.8823C71.2693 46.6137 71.4002 46.2425 71.4073 45.2036V38.2843L69.5031 38.2206L69.4706 38.1393C69.3782 37.9341 69.3288 37.7131 69.3252 37.4891C69.324 37.3374 69.3547 37.1871 69.4154 37.0474C69.4761 36.9077 69.5655 36.7815 69.6781 36.6766C69.7908 36.5717 69.9243 36.4903 70.0704 36.4374C70.2166 36.3845 70.3723 36.3612 70.5281 36.3689H71.3529V35.6055C71.3529 33.7608 71.7162 32.7112 72.1886 32.0078C72.9153 30.8876 74.2199 30.1173 76.1857 30.1173C78.6529 30.1173 80.7241 31.234 80.7351 33.0293C80.7429 33.2542 80.7043 33.4783 80.6216 33.6885C80.5389 33.8987 80.4137 34.0906 80.2535 34.253C80.0933 34.4154 79.9013 34.5449 79.6888 34.634C79.4763 34.723 79.2476 34.7698 79.0163 34.7716C78.5787 34.7654 78.1604 34.595 77.849 34.296C77.5375 33.997 77.3568 33.5925 77.3447 33.167C77.3492 32.8433 77.4474 32.5273 77.6282 32.2554C77.2707 32.008 76.8385 31.8836 76.4 31.9019C75.6333 31.9019 75.2155 32.1634 74.9465 32.5909C74.6704 33.1395 74.5453 33.7484 74.5832 34.358V36.3406H77.8535L77.8898 36.4254C77.9824 36.6353 78.0307 36.8613 78.0317 37.0898C78.0424 37.4022 77.9304 37.7069 77.7185 37.9419C77.5065 38.1769 77.2105 38.3246 76.8906 38.3549C76.6489 38.375 76.4063 38.3832 76.1638 38.3796C75.6187 38.3796 75.0738 38.3407 74.6814 38.3338V45.1755C74.6814 46.2109 74.8594 46.5891 75.1828 46.8506C75.5062 47.1122 76.2729 47.204 76.5163 47.2358H76.5854L76.6145 47.3029C76.6976 47.4658 76.7435 47.6442 76.749 47.8259C76.749 48.2995 76.3527 48.5964 75.7532 48.7553C74.9117 48.9383 74.0495 49.0156 73.1878 48.9853C72.3603 49.0159 71.5322 48.9421 70.7242 48.766M47.9048 48.766C47.3487 48.6176 46.989 48.3207 46.9928 47.8719C47.0025 47.6751 47.0545 47.4825 47.1452 47.3064L47.1743 47.2428H47.247C47.5682 47.1819 47.8713 47.0515 48.1336 46.8611C48.457 46.5926 48.5915 46.2216 48.5951 45.1827V39.9311C48.5698 39.0476 48.3553 38.7403 47.6031 38.7189C47.4017 38.7221 47.201 38.7435 47.0036 38.7826L46.8875 38.8037L46.8438 38.6978C46.766 38.5163 46.7253 38.3218 46.7238 38.1252C46.742 37.0649 47.9229 36.5455 48.7224 36.3053C49.0066 36.2159 49.303 36.1682 49.6017 36.1638C50.6918 36.1638 51.2732 36.906 51.5276 37.8601C52.2542 36.7469 53.3663 36.0119 54.4744 36.0049C55.5027 36.0049 56.5602 36.6656 56.5638 37.9238C56.5824 38.3919 56.4092 38.8481 56.0821 39.192C55.755 39.5359 55.3009 39.7395 54.8196 39.7578C54.4351 39.7666 54.0597 39.6442 53.7583 39.4118C53.457 39.1794 53.2489 38.8518 53.17 38.4857C52.5523 38.6836 51.6764 39.4293 51.6657 42.0196V45.2003C51.6657 46.2392 51.8255 46.6139 52.1453 46.8753C52.5054 47.0772 52.903 47.2081 53.3152 47.2604H53.3843L53.417 47.3241C53.514 47.5133 53.5686 47.7205 53.577 47.9318C53.577 48.356 53.2536 48.6387 52.7267 48.7907C51.9525 48.9625 51.1583 49.0338 50.3648 49.0028C49.5409 49.0331 48.7164 48.9595 47.912 48.7837M37.1273 48.7837C36.5713 48.6352 36.2154 48.3384 36.2154 47.8895C36.2233 47.6929 36.2741 47.5002 36.3642 47.3241L36.3933 47.2604H36.4659C36.7872 47.1996 37.0902 47.0692 37.3526 46.879C37.676 46.6102 37.8105 46.2392 37.8141 45.2003V39.9311C37.7849 39.0476 37.5742 38.7403 36.8185 38.7189C36.617 38.7221 36.4163 38.7435 36.2189 38.7826L36.1026 38.8037L36.0589 38.6978C35.9811 38.5163 35.9404 38.3218 35.939 38.1252C35.9572 37.0649 37.1381 36.5455 37.9376 36.3053C38.2206 36.2161 38.5157 36.1684 38.8132 36.1638C39.9034 36.1638 40.4848 36.906 40.7392 37.8566C41.4658 36.7469 42.5779 36.0119 43.6862 36.0047C44.7143 36.0047 45.7753 36.6658 45.7791 37.9272C45.7979 38.3954 45.6247 38.8516 45.2976 39.1956C44.9705 39.5396 44.5163 39.7432 44.035 39.7615C43.6506 39.7696 43.2754 39.647 42.9742 39.4147C42.673 39.1823 42.4646 38.855 42.3852 38.4892C41.7675 38.6871 40.8918 39.4328 40.8844 42.0233V45.2036C40.8844 46.2427 41.0406 46.6174 41.364 46.879C41.7241 47.0813 42.1218 47.2122 42.5342 47.2641H42.6068L42.636 47.3278C42.7344 47.5167 42.7901 47.7239 42.7994 47.9355C42.7994 48.3597 42.4724 48.6424 41.9454 48.7944C41.1712 48.9662 40.377 49.0374 39.5836 49.0062C38.7597 49.0365 37.9353 48.9628 37.1309 48.7872M82.1014 42.2247C82.1014 45.6703 83.6492 47.1545 85.1608 47.1722C86.8868 47.1722 88.1367 45.6877 88.1479 42.7866C88.1479 41.2704 87.8025 40.0582 87.2393 39.2526C87.011 38.8755 86.6869 38.5618 86.2982 38.3415C85.9094 38.1212 85.469 38.0016 85.0191 37.9944C83.2241 37.9944 82.1122 39.5741 82.1122 42.2565M27.9087 42.9844C26.4842 42.9844 25.5285 43.6488 25.5211 44.9353C25.5211 46.1507 26.3716 46.9673 27.7014 46.9742C28.1446 46.9585 28.5791 46.8497 28.9749 46.6551C29.3707 46.4605 29.7184 46.1848 29.9942 45.8471V44.0799C29.9762 43.9294 29.9195 43.7858 29.8293 43.6623C29.7392 43.5388 29.6184 43.4394 29.4783 43.3732C28.9979 43.1186 28.4552 42.9964 27.9087 43.0197M64.7615 40.9347C65.0156 40.9347 65.0847 40.8745 65.1246 40.7934C65.1798 40.6466 65.2009 40.4897 65.1864 40.3339C65.1822 40.0254 65.1152 39.7206 64.9892 39.4374C64.8632 39.1542 64.6807 38.898 64.4523 38.6838C64.2239 38.4695 63.9541 38.3014 63.6585 38.1891C63.363 38.0769 63.0474 38.0227 62.7302 38.0297C60.8733 38.0297 60.1211 39.4751 60.0048 40.9349H64.7469L64.7615 40.9347ZM7.58184 46.9073C6.01542 45.3449 5.00549 43.062 5.00549 40.2206C4.95629 37.7777 5.86584 35.4083 7.54912 33.5945C8.29063 32.8013 9.19281 32.1658 10.199 31.7279C11.2051 31.2901 12.2935 31.0594 13.3957 31.0502C17.3601 31.0502 20.1579 33.7536 20.1725 36.0862C20.1725 37.3337 19.3587 38.2985 18.2611 38.3019C17.7363 38.3099 17.2281 38.1228 16.8404 37.7788C16.6418 37.5913 16.4856 37.3656 16.3818 37.1162C16.278 36.8667 16.2287 36.5989 16.2372 36.3299C16.2432 36.0511 16.3056 35.7762 16.421 35.5209C16.5363 35.2656 16.7023 35.035 16.9094 34.8422C16.3717 33.948 15.3398 33.2413 13.7227 33.2413C12.3493 33.2413 11.1791 33.948 10.3579 35.1567C9.53669 36.3652 9.03172 38.1287 9.03172 40.2034C9.03172 42.2781 9.54408 44.0163 10.4016 45.2319C11.2591 46.4478 12.44 47.1368 13.8135 47.1403C15.4306 47.1403 16.4625 46.4336 16.9822 45.536C16.5669 45.1478 16.3265 44.6154 16.3134 44.0553C16.3053 43.7857 16.3547 43.5175 16.4586 43.2675C16.5624 43.0175 16.7184 42.7911 16.9168 42.6027C17.3044 42.2581 17.8124 42.0699 18.3375 42.0762C19.4277 42.0762 20.2451 43.0375 20.2489 44.2813C20.2489 46.6244 17.4363 49.3103 13.4719 49.3208C12.3734 49.3227 11.2858 49.11 10.2734 48.6954C9.26096 48.2808 8.34447 47.6726 7.57825 46.9071M7.57825 46.9071C6.01204 45.3451 5.0019 43.0622 5.0019 40.2208C4.9527 37.7779 5.86225 35.4085 7.54553 33.5947C8.28702 32.8014 9.18919 32.1659 10.1953 31.728C11.2015 31.2902 12.2899 31.0594 13.3921 31.0502C17.3563 31.0502 20.1543 33.7536 20.1687 36.0862C20.1687 37.3337 19.3549 38.2985 18.2575 38.3019C17.7327 38.3099 17.2246 38.1228 16.8368 37.7788C16.6382 37.5913 16.4821 37.3656 16.3782 37.1162C16.2744 36.8667 16.2251 36.5989 16.2336 36.3299C16.2396 36.0511 16.302 35.7762 16.4174 35.5209C16.5327 35.2656 16.6987 35.035 16.9058 34.8422C16.3717 33.948 15.3398 33.2413 13.7227 33.2413C12.3493 33.2413 11.1791 33.948 10.3579 35.1567C9.53669 36.3652 9.03172 38.1287 9.03172 40.2034C9.03172 42.2781 9.54408 44.0163 10.4016 45.2319C11.2591 46.4478 12.44 47.1368 13.8135 47.1403C15.4306 47.1403 16.4625 46.4336 16.9822 45.536C16.5669 45.1478 16.3265 44.6154 16.3134 44.0553C16.3053 43.7857 16.3547 43.5175 16.4586 43.2675C16.5624 43.0175 16.7184 42.7911 16.9168 42.6027C17.3044 42.2581 17.8124 42.0699 18.3375 42.0762C19.4277 42.0762 20.2451 43.0375 20.2489 44.2813C20.2489 46.6244 17.4363 49.3103 13.4719 49.3208C12.3734 49.3227 11.2858 49.11 10.2734 48.6954C9.26096 48.2808 8.34447 47.6726 7.57825 46.9071ZM7.57825 46.9071C6.01204 45.3451 5.0019 43.0622 5.0019 40.2208C4.9527 37.7779 5.86225 35.4085 7.54553 33.5947C8.28702 32.8014 9.18919 32.1659 10.1953 31.728C11.2015 31.2902 12.2899 31.0594 13.3921 31.0502C17.3563 31.0502 20.1543 33.7536 20.1687 36.0862C20.1687 37.3337 19.3549 38.2985 18.2575 38.3019C17.7327 38.3099 17.2246 38.1228 16.8368 37.7788C16.6382 37.5913 16.4821 37.3656 16.3782 37.1162C16.2744 36.8667 16.2251 36.5989 16.2336 36.3299C16.2396 36.0511 16.302 35.7762 16.4174 35.5209C16.5327 35.2656 16.6987 35.035 16.9058 34.8422C16.3717 33.948 15.3398 33.2413 13.7227 33.2413C12.3493 33.2413 11.1791 33.948 10.3579 35.1567C9.53669 36.3652 9.03172 38.1287 9.03172 40.2034C9.03172 42.2781 9.54408 44.0163 10.4016 45.2319C11.2591 46.4478 12.44 47.1368 13.8135 47.1403C15.4306 47.1403 16.4625 46.4336 16.9822 45.536C16.5669 45.1478 16.3265 44.6154 16.3134 44.0553C16.3053 43.7857 16.3547 43.5175 16.4586 43.2675C16.5624 43.0175 16.7184 42.7911 16.9168 42.6027C17.3044 42.2581 17.8124 42.0699 18.3375 42.0762C19.4277 42.0762 20.2451 43.0375 20.2489 44.2813C20.2489 46.6244 17.4363 49.3103 13.4719 49.3208C12.3734 49.3227 11.2858 49.11 10.2734 48.6954C9.26096 48.2808 8.34447 47.6726 7.57825 46.9071Z" fill="white" style="fill: var(--token-703c781d-88fc-4db0-b0bc-b65130886925, rgb(255, 255, 255));"/> </svg>