<svg width="192" height="80" viewBox="0 0 192 80" fill="none" xmlns="http://www.w3.org/2000/svg"> <path d="M89.9963 49.2492L89.9714 49.1742L89.9387 49.0914L89.9054 49.0169L89.8804 48.9419L89.8477 48.8674L89.8145 48.7846L89.7895 48.7096L89.7562 48.6351L89.7236 48.5607L89.6985 48.4857L89.6653 48.4029L89.6409 48.3284L89.6076 48.2534L89.5743 48.1789L89.5495 48.1044L89.5166 48.0212L89.4835 47.9467L89.4585 47.8722L89.4252 47.7973L89.3925 47.7145L89.3676 47.6395L89.3343 47.565L89.3016 47.6395L89.2767 47.7145L89.2434 47.7973L89.2101 47.8722L89.1857 47.9467L89.1525 48.0212L89.1192 48.1044L89.0865 48.1789L89.0614 48.2534L89.0282 48.3284L88.995 48.4029L88.9705 48.4857L88.9373 48.5607L88.904 48.6351L88.8792 48.7096L88.8463 48.7846L88.8131 48.8674L88.7799 48.9419L88.7555 49.0169L88.7222 49.0914L88.6889 49.1742L88.664 49.2492L88.6312 49.3237H90.0295L89.9963 49.2492Z" fill="white" style="fill: var(--token-703c781d-88fc-4db0-b0bc-b65130886925, rgb(255, 255, 255));"/> <path d="M92.2386 30.9363C93.0072 30.9363 93.3768 30.5658 93.3768 29.7682V24.7552C93.3768 23.9578 93.0072 23.5876 92.2386 23.5876H90.986V30.9363H92.2386Z" fill="white" style="fill: var(--token-703c781d-88fc-4db0-b0bc-b65130886925, rgb(255, 255, 255));"/> <path fill-rule="evenodd" clip-rule="evenodd" d="M77.0865 14H113.913C116.898 14 118 15.097 118 18.0709V53.9551C118 54.2916 117.986 54.6042 117.956 54.8938C117.951 54.9479 117.945 55.0019 117.94 55.0558C117.882 55.6484 117.825 56.2316 117.269 56.8881C117.21 56.9583 116.591 57.4169 116.591 57.4169C116.531 57.4463 116.475 57.4742 116.42 57.5012C116.171 57.6237 115.963 57.7264 115.655 57.8497L97.5215 65.4155C96.58 65.8453 96.1864 66.0128 95.5026 65.9993V65.9994H95.4973V65.9993C94.8135 66.0128 94.4198 65.8453 93.4785 65.4155L75.3444 57.8497C75.0363 57.7262 74.8279 57.6235 74.5791 57.5007C74.5247 57.4739 74.4684 57.4461 74.4087 57.4169C74.4087 57.4169 73.7897 56.9583 73.7305 56.8881C73.1748 56.2316 73.1177 55.6484 73.0597 55.0558C73.0544 55.0019 73.0491 54.9479 73.0435 54.8938C73.0136 54.6042 73 54.2916 73 53.9551V18.0709C73 15.097 74.1016 14 77.0865 14ZM108.372 37.1738V32.6735H111.361V37.316C111.361 39.7942 110.137 41.0187 107.661 41.0187H106.152C103.676 41.0187 102.452 39.7942 102.452 37.316V24.4421C102.452 21.9639 103.676 20.7393 106.152 20.7393H107.633C110.109 20.7393 111.304 21.9357 111.304 24.4134V28.4867H108.316V24.5843C108.316 23.7868 107.945 23.4167 107.177 23.4167H106.664C105.868 23.4167 105.497 23.7868 105.497 24.5843V37.1738C105.497 37.9714 105.868 38.3414 106.664 38.3414H107.234C108.002 38.3414 108.372 37.9714 108.372 37.1738ZM82.6843 32.0751H86.2706V29.3125H82.6843V23.6728H86.4134V20.9103H79.6388V40.8478H86.4702V38.0852H82.6843V32.0751ZM111.447 50.0769L111.438 50.1597L111.43 50.2506L111.413 50.3334L111.389 50.4161L111.373 50.4907L111.347 50.5735L111.314 50.648L111.281 50.7143L111.248 50.7887L111.165 50.9212L111.116 50.9874L111.074 51.0536L111.025 51.1114L110.967 51.1694L110.917 51.2191L110.851 51.2771L110.793 51.3267L110.727 51.3764L110.661 51.4172L110.595 51.4669L110.52 51.5082L110.445 51.5414L110.371 51.5827L110.288 51.6159L110.205 51.649L110.123 51.6738L110.04 51.6987L109.965 51.7234L109.883 51.7401L109.734 51.7731L109.651 51.7897L109.568 51.798L109.494 51.8063L109.411 51.8146L109.32 51.8229L109.237 51.8311H108.89L108.807 51.8229H108.716L108.55 51.8063L108.459 51.798L108.377 51.7814L108.294 51.7731L108.211 51.7566L108.128 51.7401L108.046 51.7234L107.963 51.7069L107.88 51.6822L107.806 51.6656L107.64 51.6159L107.566 51.5827L107.483 51.5579L107.409 51.5332L107.326 51.5L107.251 51.4669L107.177 51.4337L107.103 51.3929L107.028 51.3598L106.954 51.3183L106.887 51.2771L106.813 51.2356L106.747 51.1943L106.68 51.1529L106.548 51.0536L106.482 51.0039L106.416 50.9542L106.357 50.9045L106.291 50.8466L106.341 50.7805L106.399 50.7225L106.449 50.6562L106.507 50.59L106.557 50.5321L106.606 50.4659L106.664 50.3996L106.713 50.3417L106.772 50.2755L106.821 50.2176L106.879 50.1514L106.929 50.0851L106.978 50.0272L107.036 49.961L107.086 49.8947L107.144 49.8368L107.194 49.7706L107.26 49.8203L107.334 49.8699L107.4 49.9196L107.475 49.9693L107.541 50.0107L107.616 50.0602L107.681 50.1017L107.756 50.1347L107.822 50.1762L107.897 50.2093L107.971 50.2424L108.046 50.2755L108.12 50.3004L108.195 50.3334L108.36 50.3831L108.434 50.4079L108.683 50.4576L108.774 50.4659L108.857 50.4824H108.94L109.03 50.4907H109.212L109.303 50.4824L109.386 50.4659L109.461 50.4493L109.535 50.4328L109.602 50.4079L109.659 50.3749L109.726 50.3252L109.775 50.2672L109.808 50.2009L109.833 50.1265L109.842 50.0437V50.0272L109.833 49.9278L109.8 49.845L109.759 49.7871L109.701 49.7375L109.634 49.6878L109.568 49.6547L109.494 49.6216L109.411 49.5885L109.312 49.5472L109.254 49.5306L109.188 49.514L109.113 49.4891L109.039 49.4726L108.956 49.4478L108.873 49.4312L108.782 49.4064L108.699 49.3899L108.609 49.365L108.526 49.3485L108.443 49.3237L108.36 49.307L108.278 49.2822L108.203 49.2575L108.12 49.2409L107.971 49.1912L107.897 49.1663L107.806 49.1332L107.723 49.1001L107.557 49.0339L107.483 48.9925L107.4 48.9511L107.334 48.9098L107.26 48.8684L107.194 48.8187L107.127 48.7774L107.069 48.7276L107.011 48.6697L106.954 48.6118L106.904 48.5538L106.854 48.4959L106.813 48.438L106.772 48.3717L106.73 48.2973L106.697 48.2399L106.672 48.1736L106.647 48.0991L106.623 48.0329L106.606 47.9501L106.589 47.8756L106.581 47.7928L106.573 47.71L106.564 47.6191V47.4286L106.573 47.3459L106.581 47.2714L106.589 47.1886L106.623 47.0397L106.647 46.9651L106.664 46.8906L106.697 46.8161L106.763 46.6672L106.804 46.5926L106.846 46.5182L106.895 46.4519L106.945 46.3857L107.003 46.3195L107.061 46.2616L107.119 46.1954L107.185 46.1374L107.243 46.096L107.309 46.0463L107.376 45.9967L107.441 45.9553L107.516 45.914L107.591 45.8808L107.665 45.8394L107.74 45.8064L107.822 45.7815L107.905 45.7484L107.98 45.7236L108.046 45.707L108.195 45.6739L108.278 45.6574L108.352 45.6408L108.6 45.6159L108.683 45.6077H109.039L109.221 45.6242H109.303L109.395 45.6325L109.477 45.6491L109.568 45.6574L109.651 45.6739L109.726 45.6904L109.808 45.707L109.891 45.7236L109.965 45.7401L110.048 45.7649L110.123 45.7898L110.197 45.8064L110.28 45.8394L110.355 45.8643L110.503 45.9305L110.586 45.9636L110.661 46.005L110.727 46.0381L110.801 46.0795L110.876 46.1208L110.942 46.1623L111.017 46.212L111.083 46.2532L111.149 46.303L111.281 46.4023L111.232 46.4685L111.19 46.5347L111.141 46.6009L111.091 46.6672L111.042 46.7416L111 46.8078L110.95 46.8741L110.901 46.9403L110.859 47.0065L110.81 47.0728L110.76 47.139L110.718 47.2052L110.669 47.2797L110.619 47.3459L110.57 47.4121L110.528 47.4783L110.479 47.5445L110.412 47.4949L110.338 47.4535L110.272 47.4121L110.205 47.3624L110.131 47.3294L110.065 47.2879L109.99 47.2548L109.924 47.2217L109.849 47.1886L109.783 47.1555L109.709 47.1307L109.643 47.0975L109.552 47.0728L109.469 47.0479L109.386 47.0231L109.221 46.99L109.138 46.9734L109.055 46.9651L108.972 46.9568L108.898 46.9485H108.716L108.625 46.9651L108.542 46.9817L108.468 46.9982L108.402 47.0313L108.344 47.0644L108.269 47.1307L108.219 47.2052L108.187 47.2797L108.178 47.3624V47.379L108.187 47.4866L108.228 47.5776L108.261 47.6273L108.319 47.6853L108.393 47.7266L108.459 47.768L108.542 47.8012L108.633 47.8343L108.733 47.8673L108.799 47.8839L108.865 47.9087L108.94 47.9252L109.014 47.9501L109.096 47.9667L109.279 48.0163L109.37 48.0412L109.461 48.0577L109.543 48.0826L109.634 48.1074L109.717 48.1239L109.883 48.1736L109.957 48.1984L110.04 48.2233L110.189 48.2729L110.28 48.3055L110.363 48.347L110.445 48.38L110.528 48.4214L110.603 48.4628L110.677 48.5042L110.743 48.5456L110.81 48.5952L110.876 48.6366L110.942 48.6946L111.008 48.7525L111.066 48.8187L111.124 48.8766L111.173 48.9429L111.223 49.0173L111.264 49.0835L111.306 49.1581L111.339 49.2243L111.364 49.2987L111.389 49.3732L111.405 49.4478L111.438 49.6134L111.447 49.6961L111.455 49.7871V49.9858L111.447 50.0769ZM100.902 51.7319V45.707H105.685V47.0728H102.482V48.0577H105.362V49.3402H102.482V50.3665H105.726V51.7319H100.902ZM98.0832 51.7319V48.1692L98.0418 48.2354L97.9924 48.3104L97.9507 48.3766L97.9014 48.4429L97.8599 48.5173L97.8099 48.5836L97.7689 48.6498L97.7273 48.7248L97.678 48.791L97.6363 48.8572L97.5866 48.9234L97.5455 48.9984L97.4956 49.0646L97.4545 49.1308L97.4129 49.2053L97.363 49.272L97.322 49.3383L97.2721 49.4127L97.2311 49.479L97.1812 49.5452L97.1401 49.6201L97.0985 49.6864L97.0487 49.7526L97.0077 49.8271L96.9578 49.8938L96.9167 49.96L96.8668 50.0263L96.8252 50.1007L96.7841 50.1673L96.7343 50.2336L96.6933 50.3081L96.6434 50.3743L96.6019 50.4405L96.5525 50.5156L96.5109 50.5818H96.4781L96.4283 50.5073L96.3867 50.4405L96.3373 50.366L96.2957 50.2998L96.2463 50.2254L96.2048 50.1586L96.1555 50.0841L96.1138 50.0179L96.064 49.9434L96.0229 49.8772L95.973 49.8022L95.932 49.736L95.8821 49.6615L95.8405 49.5953L95.7912 49.5203L95.7496 49.4541L95.7002 49.3796L95.6504 49.3134L95.6088 49.2385L95.5594 49.1723L95.5179 49.0978L95.4685 49.0316L95.4269 48.9565L95.3775 48.8903L95.336 48.8158L95.2861 48.7496L95.245 48.6751L95.1951 48.6083L95.1541 48.5339L95.1042 48.4676L95.0627 48.3931L95.0133 48.327L94.9716 48.252L94.9223 48.1858V51.7319H93.3499V45.707H95.0465L95.0876 45.7733L95.1291 45.8477L95.1785 45.9134L95.2201 45.9879L95.2616 46.0541L95.3027 46.1287L95.3442 46.1943L95.3937 46.2689L95.4352 46.3351L95.4768 46.4013L95.5179 46.4753L95.5594 46.5416L95.6088 46.616L95.6504 46.6823L95.6919 46.7562L95.733 46.8224L95.7828 46.8886L95.8245 46.9628L95.8655 47.0289L95.907 47.1034L95.9482 47.1697L95.998 47.2436L96.0396 47.3099L96.0805 47.3843L96.1222 47.45L96.1632 47.5162L96.2131 47.5907L96.2547 47.657L96.2957 47.7315L96.3373 47.7973L96.3783 47.8718L96.4283 47.938L96.4698 48.0119L96.5109 48.0782L96.5525 48.0119L96.594 47.938L96.6434 47.8718L96.6848 47.7973L96.726 47.7315L96.7675 47.657L96.817 47.5907L96.8585 47.5162L96.9001 47.45L96.9411 47.3843L96.991 47.3099L97.032 47.2436L97.0737 47.1697L97.1151 47.1034L97.1645 47.0289L97.2061 46.9628L97.2477 46.8886L97.2887 46.8224L97.3304 46.7562L97.3797 46.6823L97.4213 46.616L97.4628 46.5416L97.5039 46.4753L97.5537 46.4013L97.5949 46.3351L97.6363 46.2689L97.678 46.1943L97.7273 46.1287L97.7689 46.0541L97.8099 45.9879L97.8515 45.9134L97.9014 45.8477L97.9425 45.7733L97.984 45.707H99.6801V51.7319H98.0832ZM90.9728 51.7319L90.94 51.6573L90.915 51.5827L90.8818 51.5082L90.8485 51.4255L90.8241 51.3515L90.7576 51.2026L90.7331 51.1281L90.6999 51.0536L90.6666 50.979L90.6418 50.9045L90.609 50.8218L90.5757 50.7473L90.5508 50.6728L90.5175 50.5983H88.1427L88.11 50.6728L88.0851 50.7473L88.0518 50.8218L88.0186 50.9045L87.9941 50.979L87.9609 51.0536L87.9277 51.1281L87.9027 51.2026L87.87 51.2771L87.8367 51.3515L87.8118 51.4255L87.7789 51.5082L87.7458 51.5827L87.7208 51.6573L87.6875 51.7319H86.0164L86.0491 51.6573L86.0824 51.5827L86.1156 51.5082L86.1484 51.4255L86.1734 51.3515L86.2066 51.2771L86.2398 51.2026L86.2726 51.1281L86.3059 51.0536L86.3391 50.9707L86.3719 50.8962L86.4051 50.8218L86.43 50.7473L86.4633 50.6728L86.496 50.5983L86.5293 50.5156L86.5625 50.4411L86.5953 50.3665L86.6286 50.2921L86.6618 50.2176L86.6867 50.143L86.7194 50.0602L86.786 49.9113L86.8187 49.8368L86.8853 49.6878L86.918 49.605L86.943 49.5306L86.9763 49.4561L87.0094 49.3816L87.0423 49.307L87.0755 49.2325L87.1086 49.1498L87.1415 49.0753L87.1747 49.0008L87.1996 48.9263L87.2329 48.8519L87.2656 48.7774L87.2989 48.6946L87.3322 48.6201L87.3649 48.5456L87.3981 48.4711L87.4314 48.3966L87.4563 48.322L87.4891 48.2481L87.5223 48.1653L87.5555 48.0909L87.5883 48.0163L87.6215 47.9418L87.6548 47.8673L87.6875 47.7928L87.7125 47.71L87.7458 47.6356L87.7789 47.5611L87.8118 47.4866L87.8451 47.4121L87.8782 47.3376L87.9111 47.2548L87.9443 47.1804L87.9692 47.1059L88.0024 47.0313L88.0352 46.9568L88.0684 46.8823L88.1017 46.7996L88.1344 46.7251L88.201 46.5761L88.2254 46.5017L88.2586 46.4271L88.2919 46.3444L88.3252 46.2699L88.3579 46.1954L88.3912 46.1208L88.4244 46.0463L88.4571 45.9719L88.4822 45.8891L88.5154 45.8146L88.5486 45.7401L88.5814 45.6656H90.1122L90.1454 45.7401L90.1787 45.8146L90.2115 45.8891L90.2447 45.9719L90.2696 46.0463L90.3024 46.1208L90.3357 46.1954L90.3689 46.2699L90.4021 46.3444L90.4349 46.4271L90.5014 46.5761L90.5258 46.6506L90.5924 46.7996L90.6257 46.8823L90.6584 46.9568L90.6916 47.0313L90.7249 47.1059L90.7576 47.1804L90.7825 47.2548L90.8157 47.3376L90.8485 47.4121L90.8818 47.4866L90.915 47.5611L90.9483 47.6356L90.981 47.71L91.0142 47.7928L91.0393 47.8673L91.072 47.9418L91.1717 48.1653L91.2045 48.2481L91.2377 48.322L91.2709 48.3966L91.2954 48.4711L91.3286 48.5456L91.3619 48.6201L91.3947 48.6946L91.4279 48.7774L91.4945 48.9263L91.5272 49.0008L91.5521 49.0753L91.5853 49.1498L91.6181 49.2325L91.6513 49.307L91.6846 49.3816L91.7178 49.4561L91.7506 49.5306L91.7839 49.605L91.8088 49.6878L91.8416 49.7623L91.8748 49.8368L91.9081 49.9113L91.9408 49.9858L91.9741 50.0602L92.0073 50.143L92.0406 50.2176L92.065 50.2921L92.1316 50.4411L92.1643 50.5156L92.1975 50.5983L92.2308 50.6728L92.264 50.7473L92.2967 50.8218L92.3217 50.8962L92.355 50.9707L92.3877 51.0536L92.4541 51.2026L92.4869 51.2771L92.5201 51.3515L92.5534 51.4255L92.5785 51.5082L92.6111 51.5827L92.6444 51.6573L92.6776 51.7319H90.9728ZM85.3456 50.9624L85.2792 51.0121L85.2214 51.0536L85.1549 51.1032L85.0889 51.1446L85.0229 51.1943L84.9564 51.2356L84.8904 51.2771L84.8156 51.3183L84.7412 51.3598L84.6669 51.4011L84.5922 51.4337L84.5178 51.4752L84.4352 51.5082L84.3609 51.5414L84.2778 51.5744L84.2035 51.6076L84.1291 51.6324L84.0543 51.6573L83.98 51.6822L83.8974 51.7069L83.8231 51.7319L83.74 51.7484L83.6656 51.7649L83.583 51.7814L83.4999 51.798L83.4172 51.8063L83.3263 51.8146L83.2437 51.8229L83.1527 51.8311L83.0696 51.8394L82.9787 51.8476H82.6227L82.5401 51.8394L82.4491 51.8311L82.3665 51.8229L82.2008 51.8063L82.0355 51.7731L81.9612 51.7566L81.8781 51.7401L81.8038 51.7152L81.7212 51.6987L81.6463 51.6738L81.572 51.6407L81.4976 51.6159L81.4151 51.5827L81.3403 51.5497L81.2659 51.5166L81.1917 51.4835L81.1168 51.4421L81.0509 51.4011L80.9765 51.3598L80.91 51.3183L80.844 51.2771L80.7775 51.2273L80.6454 51.1281L80.5873 51.0784L80.5296 51.0287L80.4714 50.9707L80.4137 50.9212L80.3555 50.8632L80.2978 50.8052L80.248 50.7473L80.1986 50.6811L80.1487 50.6231L80.1071 50.5569L80.0577 50.4907L80.0163 50.4245L79.9751 50.3583L79.9336 50.2837L79.8921 50.2176L79.8593 50.143L79.826 50.0685L79.7928 49.994L79.76 49.9196L79.7351 49.8534L79.7018 49.7788L79.6852 49.7043L79.6607 49.6299L79.6441 49.5472L79.6192 49.4726L79.6026 49.3899L79.5943 49.3154L79.5776 49.2325L79.5694 49.1581L79.561 49.0753L79.5532 48.9925L79.5449 48.9098V48.6366L79.5532 48.5456V48.4628L79.561 48.38L79.5694 48.289L79.586 48.2067L79.5943 48.1239L79.6109 48.0494L79.6358 47.9667L79.6525 47.8839L79.6769 47.8094L79.7018 47.7266L79.7267 47.6521L79.76 47.5693L79.7928 47.4949L79.826 47.4204L79.8593 47.3459L79.8921 47.2714L79.9336 47.1969L79.9751 47.1307L80.0163 47.0644L80.0577 46.9982L80.0994 46.932L80.1487 46.8658L80.1986 46.7996L80.248 46.7334L80.2978 46.6754L80.3555 46.6175L80.4054 46.5595L80.5213 46.4436L80.579 46.394L80.6454 46.3361L80.7032 46.2864L80.7692 46.2367L80.8357 46.1954L80.9017 46.1457L80.9682 46.1043L81.0342 46.063L81.1085 46.0215L81.1833 45.9801L81.2576 45.9388L81.332 45.9056L81.4067 45.8726L81.4894 45.8311L81.5554 45.8064L81.638 45.7815L81.7129 45.7484L81.7872 45.7318L81.8614 45.707L81.9445 45.6904L82.0189 45.6656L82.1015 45.6491L82.1842 45.6408L82.2672 45.6242L82.5983 45.5911H82.9537L83.1361 45.6077H83.2187L83.3013 45.6159L83.3923 45.6325L83.4671 45.6408L83.5497 45.6574L83.6324 45.6739L83.7071 45.6904L83.8559 45.7236L83.9307 45.7484L84.0049 45.7649L84.0709 45.7898L84.1458 45.8146L84.2201 45.8477L84.2944 45.8808L84.3692 45.914L84.4435 45.9553L84.5178 45.9885L84.5844 46.0298L84.6586 46.0712L84.7247 46.1125L84.7995 46.154L84.8655 46.2036L84.9315 46.245L84.998 46.2947L85.064 46.3444L85.1305 46.4023L85.1965 46.4519L85.1466 46.5182L85.0889 46.5761L85.039 46.6423L84.9814 46.7085L84.9315 46.7748L84.8821 46.8327L84.8239 46.8989L84.7745 46.9651L84.7247 47.0231L84.6669 47.0893L84.6171 47.1555L84.5593 47.2217L84.5095 47.2797L84.4601 47.3459L84.402 47.4121L84.3525 47.4783L84.2944 47.5363L84.245 47.6025L84.1785 47.5528L84.1125 47.4949L84.046 47.4535L83.98 47.4038L83.914 47.3624L83.7814 47.2797L83.7071 47.2383L83.6407 47.2052L83.5747 47.1721L83.5082 47.1472L83.3596 47.0975L83.2847 47.081L83.2021 47.0644L83.1195 47.0479L83.0368 47.0397L82.9459 47.0313L82.8545 47.0231H82.6809L82.5983 47.0313L82.5235 47.0397L82.4409 47.0562L82.3665 47.0728L82.2917 47.0975L82.2174 47.1224L82.1431 47.1555L82.0687 47.1886L82.0023 47.2299L81.9363 47.2714L81.8698 47.3128L81.8121 47.3624L81.7539 47.4121L81.6962 47.4618L81.6463 47.5197L81.5887 47.5776L81.5388 47.6438L81.4976 47.7018L81.4561 47.768L81.4151 47.8425L81.3735 47.9087L81.3403 47.9832L81.3154 48.0577L81.2825 48.1322L81.2576 48.2149L81.241 48.2973L81.2244 48.3717L81.2077 48.4628L81.1995 48.5456L81.1917 48.6283V48.8187L81.1995 48.9015L81.2077 48.976L81.2161 49.0588L81.2659 49.2822L81.2909 49.3567L81.3154 49.4229L81.3486 49.5056L81.3818 49.5802L81.4229 49.6547L81.506 49.7871L81.5554 49.8534L81.6053 49.9113L81.6629 49.9693L81.7129 50.0272L81.7705 50.0769L81.8371 50.1265L81.9031 50.1762L81.969 50.2176L82.0355 50.2589L82.1842 50.3252L82.2589 50.3583L82.4242 50.4079L82.59 50.4411L82.6726 50.4493L82.7635 50.4576H82.9537L83.1361 50.4411L83.2187 50.4328L83.3013 50.4161L83.3845 50.3996L83.4671 50.3749L83.5414 50.3583L83.6158 50.3252L83.6823 50.2921L83.7566 50.2589L83.8147 50.2259L83.8808 50.1844V49.4312H82.6726V48.2233H85.4033V50.9128L85.3456 50.9624ZM97.7963 40.8478H100.842V20.9102H97.7963V40.8478ZM87.9404 20.9102H92.7222C95.1986 20.9102 96.4224 22.1348 96.4224 24.613V29.9109C96.4224 32.3886 95.1986 33.6131 92.7222 33.6131H90.986V40.8478H87.9404V20.9102ZM86.8237 58.8754H104.258L95.3594 61.7978L86.8237 58.8754Z" fill="white" style="fill: var(--token-703c781d-88fc-4db0-b0bc-b65130886925, rgb(255, 255, 255));"/> </svg>